<svg width="146" height="146" viewBox="0 0 146 146" fill="none" xmlns="http://www.w3.org/2000/svg">
<path fill-rule="evenodd" clip-rule="evenodd" d="M71.2793 6.74219H76.209V5.51562H71.2793V1.85938H76.9277V0.625H69.7793V12H77.0059V10.7734H71.2793V6.74219ZM93.7807 16.0226L95.2215 16.4671L98.5744 5.59742L97.1485 5.15759L94.5533 13.5711L91.6614 3.46505L90.2206 3.02062L86.8678 13.8903L88.3086 14.3347L90.8923 5.9585L93.7807 16.0226ZM115.535 14.8328L116.781 15.6822L112.243 22.3373C111.63 23.2367 110.879 23.7554 109.991 23.8935C109.107 24.0346 108.215 23.7985 107.315 23.1853C106.382 22.5487 105.817 21.814 105.622 20.9813C105.427 20.1486 105.623 19.302 106.21 18.4413L107.449 19.2863C107.082 19.8242 106.943 20.3435 107.03 20.8443C107.121 21.3479 107.447 21.7905 108.006 22.1719C108.519 22.521 109.042 22.6413 109.576 22.5327C110.114 22.4271 110.584 22.0853 110.984 21.5073L115.535 14.8328ZM125.314 37.3473C126.199 37.1209 127.077 36.6602 127.949 35.9653L128.511 35.5172C129.378 34.8255 130.021 34.0733 130.438 33.2605C130.86 32.4445 131.025 31.6273 130.931 30.8088C130.846 29.9912 130.519 29.2261 129.95 28.5135C129.392 27.8131 128.72 27.3297 127.935 27.0634C127.157 26.7978 126.321 26.7778 125.429 27.0034C124.536 27.2289 123.662 27.6827 122.807 28.3646L122.166 28.8761C121.333 29.5532 120.716 30.2953 120.314 31.1024C119.919 31.9103 119.764 32.723 119.85 33.5407C119.94 34.355 120.264 35.1124 120.822 35.8128C121.394 36.5295 122.065 37.0202 122.836 37.2849C123.607 37.5496 124.433 37.5704 125.314 37.3473ZM129.511 31.7718C129.287 32.6434 128.647 33.4997 127.593 34.3408L126.933 34.8669C125.893 35.6762 124.931 36.094 124.046 36.1203C123.165 36.1434 122.422 35.7762 121.818 35.0188C121.217 34.2655 121.036 33.4408 121.274 32.5448C121.519 31.6496 122.153 30.7945 123.175 29.9794L123.829 29.4582C124.84 28.6716 125.796 28.2659 126.696 28.2413C127.603 28.2175 128.352 28.5761 128.943 29.3172C129.55 30.0787 129.739 30.8969 129.511 31.7718ZM135.154 49.3878L141.555 50.0649L142.177 51.6503L134.104 50.6054L130.155 52.1553L129.607 50.759L133.556 49.2091L138.763 42.9525L139.391 44.5524L135.154 49.3878ZM133.736 68.4203L133.848 69.9162L145.191 69.0661L145.079 67.5703L133.736 68.4203ZM131.434 91.0476L131.77 89.5776L141.59 85.9452L133.044 83.9947L133.38 82.5246L144.47 85.0558L144.134 86.5258L134.272 90.1648L142.856 92.124L142.524 93.5788L131.434 91.0476ZM124.457 106.464C124.35 107.202 124.439 107.876 124.724 108.486L128.337 110.572L130.4 106.999L129.344 106.39L128.028 108.67L125.815 107.393C125.696 107.005 125.688 106.598 125.791 106.17C125.894 105.742 126.086 105.284 126.367 104.797C126.864 103.936 127.583 103.44 128.525 103.31C129.47 103.182 130.496 103.437 131.601 104.075L132.406 104.54C133.563 105.214 134.316 105.95 134.668 106.748C135.021 107.553 134.946 108.391 134.443 109.262C133.688 110.57 132.588 110.969 131.144 110.46L130.394 111.759C131.44 112.177 132.406 112.223 133.291 111.898C134.181 111.576 134.922 110.901 135.516 109.872C136.24 108.618 136.394 107.408 135.979 106.242C135.561 105.081 134.61 104.072 133.126 103.215L132.267 102.719C131.346 102.199 130.441 101.908 129.551 101.845C128.658 101.787 127.843 101.96 127.104 102.364C126.371 102.77 125.772 103.374 125.308 104.177C124.85 104.971 124.566 105.733 124.457 106.464ZM99.9435 139.092L103.238 137.505L98.8378 128.369L100.182 127.721L104.582 136.858L107.869 135.275L108.405 136.387L100.479 140.204L99.9435 139.092ZM79.3784 133.81L77.8874 134.035L79.5828 145.283L81.0737 145.058L80.3448 140.222L86.0151 139.368L86.7441 144.204L88.2273 143.98L86.5319 132.732L85.0487 132.956L85.8323 138.155L80.162 139.01L79.3784 133.81ZM62.9009 133.206L64.3842 133.43L62.6888 144.678L61.2056 144.454L62.9009 133.206ZM46.5747 135.09C46.2772 134.351 45.6292 133.536 44.6306 132.645C43.835 131.932 43.3278 131.352 43.1092 130.906C42.8884 130.464 42.8988 129.993 43.1406 129.49C43.3824 128.988 43.7634 128.683 44.2836 128.575C44.8038 128.468 45.4206 128.585 46.1338 128.929C46.8987 129.297 47.4252 129.77 47.7133 130.348C47.9945 130.929 47.986 131.529 47.6877 132.148L49.0462 132.803C49.3332 132.207 49.4254 131.595 49.3229 130.968C49.2157 130.338 48.9226 129.74 48.4437 129.174C47.9625 128.613 47.3699 128.163 46.666 127.824C45.582 127.302 44.5965 127.133 43.7094 127.319C42.82 127.509 42.1753 128.02 41.7753 128.85C41.5245 129.371 41.4238 129.88 41.4731 130.378C41.5177 130.874 41.7128 131.381 42.0582 131.9C42.3968 132.421 42.9354 133.008 43.6742 133.658C44.4083 134.306 44.8848 134.86 45.1036 135.318C45.3154 135.778 45.3207 136.217 45.1196 136.635C44.8688 137.156 44.488 137.472 43.9771 137.585C43.4594 137.699 42.8673 137.596 42.201 137.276C41.483 136.93 41.0128 136.484 40.7904 135.937C40.5657 135.395 40.6025 134.815 40.9008 134.195L39.5423 133.541C39.2689 134.109 39.1694 134.706 39.2439 135.331C39.3137 135.955 39.56 136.536 39.9826 137.074C40.4006 137.611 40.9615 138.049 41.6654 138.388C42.6978 138.885 43.6654 139.024 44.5683 138.806C45.4643 138.59 46.1066 138.078 46.4953 137.271C46.8388 136.558 46.8653 135.831 46.5747 135.09ZM17.5265 107.444L21.383 105.217L22.133 106.516L12.2819 112.204L10.1843 108.57C9.56189 107.492 9.35005 106.49 9.54878 105.563C9.7449 104.632 10.2963 103.905 11.2029 103.382C12.1591 102.829 13.0698 102.704 13.9348 103.004C14.7928 103.303 15.5434 104.009 16.1866 105.123L17.5265 107.444ZM16.4642 108.057L15.1166 105.723C14.7155 105.028 14.2459 104.59 13.7076 104.407C13.1647 104.228 12.5844 104.316 11.9664 104.673C11.3801 105.011 11.0177 105.467 10.8794 106.04C10.7412 106.613 10.8515 107.226 11.2103 107.879L12.6009 110.287L16.4642 108.057ZM13.9385 87.102L13.6047 85.6396L2.51491 88.1708L2.84869 89.6332L13.9385 87.102ZM7.51124 65.1413L7.14284 70.0572L11.1628 70.3584L11.5908 64.6479L12.8139 64.7395L12.2739 71.9459L0.930664 71.0958L1.46487 63.9674L2.69579 64.0596L2.27368 69.6923L5.91971 69.9655L6.28811 65.0496L7.51124 65.1413ZM16.9313 47.8397C16.5945 46.9018 15.8917 46.1477 14.8232 45.5772L14.2723 46.9808C15.0917 47.459 15.5965 47.9761 15.7868 48.532C15.9742 49.0811 15.9156 49.7435 15.6112 50.5192C15.2725 51.3822 14.6695 51.9205 13.8024 52.1341C12.9353 52.3477 11.9272 52.229 10.7781 51.778L9.7527 51.3756C8.53578 50.898 7.69658 50.2777 7.2351 49.5147C6.77553 48.7468 6.7208 47.9168 7.07092 47.0247C7.35634 46.2975 7.76711 45.8069 8.30321 45.5529C8.84121 45.2941 9.5558 45.2696 10.447 45.4795L10.9978 44.0759C9.84382 43.7516 8.82089 43.8062 7.92907 44.2395C7.03239 44.6709 6.36333 45.449 5.92187 46.5738C5.58888 47.4222 5.49705 48.2478 5.64639 49.0506C5.79087 49.8514 6.16698 50.5754 6.77471 51.2223C7.38435 51.8644 8.18127 52.3786 9.16547 52.7649L10.1836 53.1645C11.6866 53.7544 13.034 53.8496 14.2259 53.4501C15.4197 53.0458 16.262 52.2182 16.7529 50.9673C17.2058 49.8134 17.2653 48.7709 16.9313 47.8397ZM23.4945 29.5852L20.4209 33.4394L23.5726 35.9528L27.1431 31.4756L28.1021 32.2404L23.5964 37.8903L14.703 30.7981L19.16 25.2092L20.1251 25.9789L16.6033 30.395L19.4619 32.6746L22.5355 28.8204L23.4945 29.5852ZM35.9772 19.3785C36.072 19.7488 36.2897 20.1929 36.6303 20.7109L37.8244 19.8967C37.3785 19.2426 37.1937 18.6342 37.2702 18.0715L37.4985 16.8946C37.6969 15.6877 37.5394 14.7078 37.0259 13.9547C36.5066 13.193 35.8707 12.7503 35.1182 12.6267C34.3671 12.4958 33.5849 12.7077 32.7716 13.2622C31.9884 13.7961 31.4982 14.4455 31.301 15.2103C31.1052 15.9679 31.2406 16.6982 31.7073 17.4012L32.9015 16.587C32.6345 16.1954 32.5552 15.7925 32.6635 15.3782C32.7719 14.9639 33.0456 14.6071 33.4845 14.3079C33.9364 13.9998 34.3687 13.8942 34.7814 13.991C35.1912 14.0836 35.5501 14.3557 35.8582 14.8076C36.178 15.2767 36.2965 15.8388 36.2137 16.4941L35.9622 17.942C35.8773 18.5294 35.8823 19.0083 35.9772 19.3785ZM37.8179 22.1894C37.7898 22.3977 37.8417 22.5987 37.9737 22.7923C38.1058 22.986 38.2739 23.1078 38.4781 23.1576C38.6837 23.2003 38.9026 23.1424 39.135 22.984C39.3674 22.8255 39.5013 22.6428 39.5367 22.4359C39.5692 22.2246 39.5194 22.0222 39.3874 21.8285C39.2553 21.6349 39.0851 21.5146 38.8766 21.4676C38.6651 21.4164 38.4432 21.47 38.2108 21.6284C37.9784 21.7869 37.8475 21.9738 37.8179 22.1894ZM73 119C98.4051 119 119 98.4051 119 73C119 47.5949 98.4051 27 73 27C47.5949 27 27 47.5949 27 73C27 98.4051 47.5949 119 73 119ZM73 121C99.5097 121 121 99.5097 121 73C121 46.4903 99.5097 25 73 25C46.4903 25 25 46.4903 25 73C25 99.5097 46.4903 121 73 121ZM41.9322 67.576H37.6602V79H41.5322C42.4602 79 43.2922 78.8773 44.0282 78.632C44.7642 78.3867 45.3882 78.0187 45.9002 77.528C46.4122 77.0373 46.8015 76.4347 47.0682 75.72C47.3455 75.0053 47.4842 74.1733 47.4842 73.224C47.4842 71.3573 46.9935 69.9493 46.0122 69C45.0415 68.0507 43.6815 67.576 41.9322 67.576ZM43.1642 76.712C42.7269 76.8827 42.1989 76.968 41.5802 76.968H40.0442V69.608H41.9322C42.4975 69.608 42.9722 69.6933 43.3562 69.864C43.7509 70.0347 44.0709 70.2747 44.3162 70.584C44.5615 70.8933 44.7375 71.2773 44.8442 71.736C44.9615 72.184 45.0202 72.6853 45.0202 73.24C45.0202 73.8053 44.9562 74.3173 44.8282 74.776C44.7002 75.224 44.4975 75.6133 44.2202 75.944C43.9535 76.2747 43.6015 76.5307 43.1642 76.712ZM53.8571 78.872C54.5291 79.1493 55.2917 79.288 56.1451 79.288C57.0091 79.288 57.7771 79.1493 58.4491 78.872C59.1211 78.5947 59.6864 78.1947 60.1451 77.672C60.6144 77.1493 60.9664 76.52 61.2011 75.784C61.4464 75.048 61.5691 74.216 61.5691 73.288C61.5691 72.36 61.4464 71.528 61.2011 70.792C60.9557 70.056 60.5984 69.4267 60.1291 68.904C59.6704 68.3813 59.1051 67.9813 58.4331 67.704C57.7611 67.4267 56.9984 67.288 56.1451 67.288C55.3024 67.288 54.5451 67.4267 53.8731 67.704C53.2011 67.9813 52.6251 68.3813 52.1451 68.904C51.6757 69.4267 51.3131 70.056 51.0571 70.792C50.8117 71.528 50.6891 72.36 50.6891 73.288C50.6891 74.216 50.8117 75.048 51.0571 75.784C51.3131 76.52 51.6757 77.1493 52.1451 77.672C52.6144 78.1947 53.1851 78.5947 53.8571 78.872ZM58.3691 76.216C57.8784 76.8987 57.1317 77.24 56.1291 77.24C55.1264 77.24 54.3797 76.8987 53.8891 76.216C53.3984 75.5333 53.1531 74.5573 53.1531 73.288C53.1531 72.0293 53.3984 71.0587 53.8891 70.376C54.3797 69.6827 55.1264 69.336 56.1291 69.336C57.1317 69.336 57.8784 69.6827 58.3691 70.376C58.8597 71.0587 59.1051 72.0293 59.1051 73.288C59.1051 74.5573 58.8597 75.5333 58.3691 76.216ZM67.2854 67.576H65.1414V79H67.4614V71.576L72.1814 79H74.3094V67.576H71.9894V75.064L67.2854 67.576ZM83.7934 67.576H81.5214L77.2334 79H79.6974L80.6094 76.36H84.6094L85.5214 79H88.0814L83.7934 67.576ZM82.5934 70.296L83.9854 74.392H81.2174L82.5934 70.296ZM88.6497 69.64H92.0897V79H94.4897V69.64H97.9297V67.576H88.6497V69.64ZM108.812 67.576H101.02V79H108.908L109.148 76.968H103.404V74.152H108.492V72.104H103.404V69.608H108.812V67.576Z" fill="#BD7045"/>
</svg>
