<?xml version="1.0" encoding="utf-8"?>
<!-- Generator: Adobe Illustrator 25.2.1, SVG Export Plug-In . SVG Version: 6.00 Build 0)  -->
<svg version="1.1" xmlns="http://www.w3.org/2000/svg" xmlns:xlink="http://www.w3.org/1999/xlink" x="0px" y="0px"
	 viewBox="0 0 827.7 765.62" style="enable-background:new 0 0 827.7 765.62;" xml:space="preserve">
<style type="text/css">
	.st0{fill:#FFFFFF;stroke:#000000;stroke-miterlimit:10;}
	.st1{fill:#FFFFFF;stroke:#000000;stroke-width:0.75;stroke-miterlimit:10;}
	.st2{fill:none;stroke:#FD1A16;stroke-width:0.25;stroke-miterlimit:10;}
	.st3{fill:none;stroke:#000000;stroke-width:0.75;stroke-miterlimit:10;}
	.st4{stroke:#000000;stroke-width:0.75;stroke-miterlimit:10;}
	.st5{fill:none;stroke:#FFFFFF;stroke-width:2;}
	.st6{fill:none;stroke:#D5B482;stroke-width:2;}
	.st7{fill:#D4B482;stroke:#D5B482;stroke-width:1.7;}
	.st8{fill:none;stroke:#D5B482;stroke-width:1.7;}
	.st9{fill:#FFFFFF;}
	.st10{fill:#FFFFFF;stroke:#FFFFFF;stroke-width:2;}
	.st11{fill:#BD7045;stroke:#FFFFFF;stroke-width:2;}
	.st12{fill:none;stroke:#FAF9EE;stroke-width:2;}
</style>
<g id="Layer_1">
</g>
<g id="Layer_2">
</g>
<g id="Layer_3">
	<path class="st5" d="M185.85,382.81c0-96.48,25.59-183.79,66.91-246.94c41.33-63.16,98.3-102.06,161.09-102.06
		c62.79,0,119.77,38.9,161.09,102.06c41.32,63.15,66.91,150.46,66.91,246.94c0,96.48-25.59,183.79-66.91,246.94
		c-41.33,63.16-98.3,102.06-161.09,102.06s-119.77-38.9-161.09-102.06C211.44,566.6,185.85,479.3,185.85,382.81z"/>
	<path class="st5" d="M413.85,154.81c110.32,0,210.14,25.6,282.35,66.94c72.24,41.36,116.65,98.34,116.65,161.06
		s-44.42,119.7-116.65,161.06c-72.21,41.34-172.03,66.94-282.35,66.94s-210.14-25.6-282.35-66.94
		C59.27,502.52,14.85,445.54,14.85,382.81c0-62.72,44.42-119.7,116.65-161.06C203.71,180.41,303.54,154.81,413.85,154.81z"/>
</g>
</svg>
