<svg width="253" height="295" viewBox="0 0 253 295" fill="none" xmlns="http://www.w3.org/2000/svg">
<path fill-rule="evenodd" clip-rule="evenodd" d="M2 122.733C2 102.341 7.81458 72.1212 25.2216 47.0296C42.5921 21.9908 71.5404 2 118 2C146.723 2 168.755 9.88302 185.496 21.8971C171.481 15.6956 154.791 12 135 12C87.8596 12 58.3079 32.3332 40.5784 57.8896C22.8854 83.3933 17 114.039 17 134.733V281H2V122.733ZM17 283H1H0V282V122.733C0 102.039 5.88542 71.3933 23.5784 45.8896C41.3079 20.3332 70.8596 0 118 0C151.691 0 176.395 10.7098 194.219 26.2604C209.24 34.6925 220.749 46.1832 229.425 58.8454C247.112 84.6599 253 115.301 253 134.733V294V295H252H18H17V294V283ZM201.297 33.0496C212.186 40.6213 220.889 49.9258 227.775 59.9759C245.188 85.3907 251 115.616 251 134.733V293H19V283H235H236V282V122.733C236 103.301 230.112 72.6599 212.425 46.8454C209.135 42.0441 205.438 37.4112 201.297 33.0496ZM193.062 27.9047C199.987 33.9718 205.847 40.7829 210.775 47.9759C228.188 73.3907 234 103.616 234 122.733V281H19V134.733C19 114.341 24.8146 84.1212 42.2216 59.0296C59.5921 33.9908 88.5404 14 135 14C158.619 14 177.713 19.3303 193.062 27.9047Z" fill="#FEF9EE"/>
</svg>
