<?xml version="1.0" encoding="utf-8"?>
<!-- Generator: Adobe Illustrator 24.3.0, SVG Export Plug-In . SVG Version: 6.00 Build 0)  -->
<svg version="1.1" id="Layer_1" xmlns="http://www.w3.org/2000/svg" xmlns:xlink="http://www.w3.org/1999/xlink" x="0px" y="0px"
	 viewBox="0 0 827.7 729" style="enable-background:new 0 0 827.7 729;" xml:space="preserve">
<style type="text/css">
	.st0{fill:none;stroke:#FFFFFF;stroke-width:2;}
</style>
<g id="Layer_3">
	<path class="st0" d="M177.4,363.2c0-100.1,26.5-190.6,69.4-256.1C289.6,41.6,348.7,1.3,413.9,1.3s124.2,40.3,167.1,105.9
		c42.9,65.5,69.4,156.1,69.4,256.1s-26.5,190.6-69.4,256.1c-42.9,65.5-102,105.9-167.1,105.9s-124.2-40.3-167.1-105.9
		C203.9,553.9,177.4,463.3,177.4,363.2z"/>
	<path class="st0" d="M413.9,126.8c114.4,0,218,26.6,292.9,69.4c74.9,42.9,121,102,121,167.1s-46.1,124.2-121,167.1
		c-74.9,42.9-178.4,69.4-292.9,69.4s-218-26.6-292.9-69.4C46.1,487.4,0,428.3,0,363.2c0-65.1,46.1-124.2,121-167.1
		C195.9,153.3,299.4,126.8,413.9,126.8z"/>
</g>
</svg>
