<svg xmlns="http://www.w3.org/2000/svg" viewBox="0 0 64.47 45.17"><defs><style>.cls-1{fill:#333;}.cls-1,.cls-2,.cls-3,.cls-4{stroke:#333;}.cls-1,.cls-2{stroke-miterlimit:10;stroke-width:1.2px;}.cls-2,.cls-3,.cls-4{fill:none;}.cls-3,.cls-4{stroke-width:1.5px;}.cls-4{stroke-linecap:square;}</style></defs><g id="Spark_exiting_archway" data-name="Spark exiting archway"><g id="Layer_2" data-name="Layer 2"><path class="cls-1" d="M9,20.13S9,25,5.59,21.55C5.59,21.55,9,25,4.17,25c0,0,4.84,0,1.42,3.42C5.59,28.39,9,25,9,29.81c0,0,0-4.84,3.43-1.42,0,0-3.43-3.42,1.42-3.42,0,0-4.85,0-1.42-3.42C12.44,21.55,9,25,9,20.13Z"/><line class="cls-2" x1="9.01" y1="20.13" x2="9.01" y2="17.82"/><polyline class="cls-1" points="9.01 29.81 9.01 29.81 9.01 32.12"/><line class="cls-2" x1="13.86" y1="24.97" x2="16.17" y2="24.97"/><line class="cls-2" x1="12.44" y1="21.55" x2="14.07" y2="19.91"/><line class="cls-2" x1="12.44" y1="28.39" x2="14.07" y2="30.03"/><line class="cls-2" x1="5.59" y1="28.39" x2="3.96" y2="30.03"/><line class="cls-2" x1="4.17" y1="24.97" x2="1.86" y2="24.97"/><line class="cls-2" x1="5.59" y1="21.55" x2="3.96" y2="19.91"/></g><g id="Layer_3" data-name="Layer 3"><path class="cls-3" d="M35.57,18.59V16.72c0-4.5,2.64-13.5,13.19-13.5s13.2,9,13.2,13.5V42.21H35.57V31.36"/><line class="cls-4" x1="48.09" y1="24.97" x2="9.01" y2="24.97"/></g></g></svg>