<svg xmlns="http://www.w3.org/2000/svg" viewBox="0 0 97.34 97.34"><defs><style>.cls-1{fill:#fff;stroke:#333;stroke-miterlimit:10;stroke-width:2px;}</style></defs><g id="Layer_2" data-name="Layer 2"><g id="Layer_2-2" data-name="Layer 2"><path class="cls-1" d="M48.67,15.72s0,32.94-23.3,9.65c0,0,23.3,23.3-9.65,23.3,0,0,33,0,9.65,23.29,0,0,23.3-23.29,23.3,9.65,0,0,0-32.94,23.29-9.65,0,0-23.29-23.29,9.65-23.29,0,0-32.94,0-9.65-23.3C72,25.37,48.67,48.67,48.67,15.72Z"/><line class="cls-1" x1="48.67" y1="15.72" x2="48.67"/><polyline class="cls-1" points="48.67 81.61 48.67 81.61 48.67 97.34"/><line class="cls-1" x1="81.61" y1="48.67" x2="97.34" y2="48.67"/><line class="cls-1" x1="71.96" y1="25.37" x2="83.08" y2="14.25"/><line class="cls-1" x1="71.96" y1="71.96" x2="83.08" y2="83.08"/><line class="cls-1" x1="25.37" y1="71.96" x2="14.25" y2="83.08"/><line class="cls-1" x1="15.72" y1="48.67" y2="48.67"/><line class="cls-1" x1="25.37" y1="25.37" x2="14.25" y2="14.25"/></g></g></svg>