<svg width="90" height="34" viewBox="0 0 90 34" fill="none" xmlns="http://www.w3.org/2000/svg">
<path fill-rule="evenodd" clip-rule="evenodd" d="M77.2 1L88 17L77.2 33C83.714 23.3496 81.7154 19.5198 77.26 18H1.5V16H76.986C81.6308 14.5554 83.8461 10.8461 77.2 1Z" fill="white"/>
<path d="M88 17L88.8288 17.5595L89.2065 17L88.8288 16.4405L88 17ZM77.26 18L77.5829 17.0536L77.4259 17H77.26V18ZM1.5 18H0.5V19H1.5V18ZM1.5 16V15H0.5V16H1.5ZM76.986 16V17H77.1379L77.283 16.9549L76.986 16ZM88.8288 16.4405L78.0288 0.440527L76.3711 1.55947L87.1712 17.5595L88.8288 16.4405ZM78.0288 33.5595L88.8288 17.5595L87.1712 16.4405L76.3711 32.4405L78.0288 33.5595ZM76.9371 18.9464C78.9654 19.6384 80.162 20.7398 80.3488 22.5535C80.5529 24.5363 79.604 27.6511 76.3711 32.4405L78.0288 33.5595C81.31 28.6985 82.6188 25.0733 82.3383 22.3486C82.0403 19.4548 80.0099 17.8815 77.5829 17.0536L76.9371 18.9464ZM77.26 17H1.5V19H77.26V17ZM2.5 18V16H0.5V18H2.5ZM1.5 17H76.986V15H1.5V17ZM76.3711 1.55947C79.6734 6.45162 80.5887 9.57138 80.3354 11.5218C80.1045 13.3002 78.8399 14.3762 76.689 15.0451L77.283 16.9549C79.777 16.1792 81.9424 14.6783 82.3188 11.7793C82.6728 9.05239 81.3727 5.39445 78.0288 0.440527L76.3711 1.55947Z" fill="white"/>
</svg>
