<svg width="182" height="183" viewBox="0 0 182 183" fill="none" xmlns="http://www.w3.org/2000/svg">
    <g clip-path="url(#clip0)">
    <circle cx="85" cy="86" r="48" fill="#BD7045"/>
    <path d="M51.6297 80.768C52.8137 80.768 53.8484 81.0027 54.7337 81.472C55.619 81.9413 56.3017 82.6027 56.7817 83.456C57.2724 84.2987 57.5177 85.2747 57.5177 86.384C57.5177 87.4827 57.2724 88.4587 56.7817 89.312C56.3017 90.1653 55.6137 90.8267 54.7177 91.296C53.8324 91.7653 52.803 92 51.6297 92H47.4217V80.768H51.6297ZM51.4537 89.632C52.4884 89.632 53.2937 89.3493 53.8697 88.784C54.4457 88.2187 54.7337 87.4187 54.7337 86.384C54.7337 85.3493 54.4457 84.544 53.8697 83.968C53.2937 83.392 52.4884 83.104 51.4537 83.104H50.1577V89.632H51.4537ZM66.7587 92.112C65.7027 92.112 64.732 91.8667 63.8467 91.376C62.972 90.8853 62.2734 90.2027 61.7507 89.328C61.2387 88.4427 60.9827 87.4507 60.9827 86.352C60.9827 85.2533 61.2387 84.2667 61.7507 83.392C62.2734 82.5173 62.972 81.8347 63.8467 81.344C64.732 80.8533 65.7027 80.608 66.7587 80.608C67.8147 80.608 68.78 80.8533 69.6547 81.344C70.54 81.8347 71.2334 82.5173 71.7347 83.392C72.2467 84.2667 72.5027 85.2533 72.5027 86.352C72.5027 87.4507 72.2467 88.4427 71.7347 89.328C71.2227 90.2027 70.5294 90.8853 69.6547 91.376C68.78 91.8667 67.8147 92.112 66.7587 92.112ZM66.7587 89.616C67.6547 89.616 68.3694 89.3173 68.9027 88.72C69.4467 88.1227 69.7187 87.3333 69.7187 86.352C69.7187 85.36 69.4467 84.5707 68.9027 83.984C68.3694 83.3867 67.6547 83.088 66.7587 83.088C65.852 83.088 65.1267 83.3813 64.5827 83.968C64.0494 84.5547 63.7827 85.3493 63.7827 86.352C63.7827 87.344 64.0494 88.1387 64.5827 88.736C65.1267 89.3227 65.852 89.616 66.7587 89.616ZM86.4728 92H83.7368L79.1608 85.072V92H76.4248V80.768H79.1608L83.7368 87.728V80.768H86.4728V92ZM97.8481 90.016H93.6561L92.9841 92H90.1201L94.1841 80.768H97.3521L101.416 92H98.5201L97.8481 90.016ZM97.1441 87.904L95.7521 83.792L94.3761 87.904H97.1441ZM113.133 80.768V82.96H110.157V92H107.421V82.96H104.445V80.768H113.133ZM119.642 82.96V85.232H123.306V87.344H119.642V89.808H123.786V92H116.906V80.768H123.786V82.96H119.642Z" fill="white"/>
    <path d="M83.5923 13.032V16.76L87.6563 16.76V17.96L83.5923 17.96V21.8L88.1363 21.8V23L82.1363 23V11.832L88.1363 11.832V13.032L83.5923 13.032Z" fill="#BD7045"/>
    <path d="M108.121 26.603L106.73 26.1738L103.751 15.9623L101.134 24.4477L99.7424 24.0186L103.034 13.3467L104.426 13.7759L107.409 23.9722L110.021 15.502L111.413 15.9312L108.121 26.603Z" fill="#BD7045"/>
    <path d="M129.871 26.0654L125.229 32.8736C124.712 33.6316 124.064 34.0804 123.284 34.2203C122.511 34.3513 121.741 34.1554 120.974 33.6326C120.198 33.1039 119.733 32.4511 119.579 31.6744C119.43 30.8888 119.629 30.095 120.176 29.293L121.379 30.1132C121.081 30.5687 120.947 31.0126 120.975 31.4448C121.011 31.883 121.255 32.2554 121.704 32.5618C122.154 32.8683 122.579 32.9644 122.979 32.8502C123.386 32.7273 123.73 32.4586 124.013 32.0444L128.654 25.2362L129.871 26.0654Z" fill="#BD7045"/>
    <path d="M135.197 46.9088C134.552 46.0998 134.151 45.2121 133.994 44.2457C133.846 43.2726 133.953 42.3207 134.316 41.3901C134.694 40.4611 135.308 39.6575 136.159 38.9791C137.009 38.3007 137.925 37.884 138.907 37.729C139.903 37.5756 140.855 37.6828 141.762 38.0507C142.678 38.4119 143.458 38.997 144.103 39.806C144.755 40.6232 145.155 41.5184 145.304 42.4915C145.46 43.4579 145.354 44.4023 144.984 45.3246C144.615 46.2469 144.001 47.0506 143.142 47.7356C142.283 48.4206 141.362 48.8407 140.381 48.9957C139.4 49.1508 138.451 49.0477 137.535 48.6865C136.628 48.3186 135.849 47.726 135.197 46.9088ZM136.185 46.1207C136.67 46.7295 137.248 47.1626 137.917 47.4202C138.593 47.6861 139.303 47.7472 140.048 47.6034C140.8 47.468 141.522 47.1242 142.214 46.5723C142.914 46.0136 143.41 45.3863 143.701 44.6905C144.007 43.9963 144.109 43.2943 144.007 42.5845C143.904 41.8746 143.607 41.2112 143.115 40.5941C142.623 39.9769 142.042 39.5396 141.373 39.282C140.704 39.0244 139.993 38.9634 139.242 39.0988C138.505 39.2359 137.787 39.5838 137.086 40.1425C136.394 40.6945 135.895 41.3176 135.589 42.0117C135.29 42.7143 135.191 43.4204 135.294 44.1303C135.402 44.8484 135.7 45.5119 136.185 46.1207Z" fill="#BD7045"/>
    <path d="M156.657 63.3666L148.866 62.5226L144.949 64.0599L144.417 62.7046L148.334 61.1672L153.465 55.2345L154.056 56.7387L149.803 61.364L156.066 61.8623L156.657 63.3666Z" fill="#BD7045"/>
    <path d="M159.958 81.8269L148.838 82.6603L148.729 81.2084L159.85 80.375L159.958 81.8269Z" fill="#BD7045"/>
    <path d="M146.356 104.731L146.68 103.312L156.64 99.5787L147.983 97.6027L148.307 96.1832L159.195 98.6684L158.871 100.088L148.926 103.825L157.568 105.797L157.244 107.217L146.356 104.731Z" fill="#BD7045"/>
    <path d="M145.295 125.498C146.013 125.556 146.671 125.419 147.27 125.086C147.877 124.76 148.375 124.259 148.765 123.585C149.154 122.91 149.349 122.21 149.35 121.484C149.354 120.772 149.156 120.091 148.755 119.441C148.359 118.805 147.781 118.269 147.024 117.832C146.267 117.394 145.513 117.163 144.765 117.137C144.011 117.12 143.322 117.289 142.698 117.644C142.079 118.013 141.575 118.534 141.185 119.209C140.641 120.151 140.475 121.09 140.686 122.025C140.898 122.96 141.455 123.755 142.357 124.412L144.581 120.56L145.606 121.152L142.606 126.348L141.636 125.788C140.884 125.255 140.299 124.584 139.879 123.775C139.468 122.972 139.269 122.112 139.281 121.195C139.302 120.283 139.558 119.403 140.049 118.553C140.566 117.657 141.246 116.959 142.089 116.46C142.94 115.967 143.865 115.719 144.864 115.716C145.858 115.724 146.826 115.999 147.768 116.543C148.71 117.087 149.433 117.788 149.936 118.644C150.443 119.516 150.69 120.441 150.679 121.42C150.678 122.405 150.418 123.345 149.901 124.241C149.309 125.266 148.532 126.025 147.571 126.517C146.604 127.018 145.555 127.182 144.423 127.009L145.295 125.498Z" fill="#BD7045"/>
    <path d="M114.259 155.429L113.745 154.362L116.484 153.043L112.159 144.062L113.471 143.43L117.796 152.411L120.549 151.085L121.063 152.152L114.259 155.429Z" fill="#BD7045"/>
    <path d="M92.0705 161.019L90.4084 149.992L91.8481 149.775L92.6017 154.774L98.2182 153.927L97.4647 148.928L98.9044 148.711L100.567 159.738L99.1268 159.955L98.3971 155.114L92.7805 155.961L93.5102 160.802L92.0705 161.019Z" fill="#BD7045"/>
    <path d="M72.8221 160.206L74.4842 149.178L75.9239 149.395L74.2618 160.423L72.8221 160.206Z" fill="#BD7045"/>
    <path d="M57.4417 143.614C58.1048 143.933 58.6451 144.336 59.0626 144.821C59.4659 145.311 59.7169 145.834 59.8158 146.391C59.9101 146.957 59.8302 147.517 59.576 148.069L58.1777 147.396C58.3564 146.902 58.3563 146.41 58.1773 145.922C57.984 145.438 57.5606 145.039 56.9071 144.724C56.2825 144.423 55.7183 144.341 55.2146 144.477C54.6967 144.618 54.3197 144.934 54.0837 145.424C53.8986 145.809 53.8539 146.172 53.9496 146.514C54.0453 146.856 54.2217 147.166 54.4786 147.444C54.7356 147.721 55.0985 148.062 55.5672 148.465C56.147 148.957 56.5971 149.387 56.9174 149.755C57.2282 150.117 57.4397 150.551 57.5522 151.055C57.6504 151.564 57.5491 152.131 57.2482 152.755C56.9844 153.303 56.6114 153.721 56.129 154.01C55.6467 154.299 55.1001 154.438 54.4893 154.428C53.8689 154.413 53.2319 154.249 52.5784 153.934C51.6366 153.48 50.9812 152.875 50.6121 152.117C50.2334 151.354 50.1931 150.565 50.4911 149.75L51.9326 150.444C51.7956 150.852 51.8354 151.285 52.0521 151.745C52.2643 152.214 52.6634 152.59 53.2497 152.872C53.7974 153.136 54.3137 153.207 54.7986 153.085C55.2787 152.973 55.6415 152.662 55.8868 152.153C56.0626 151.788 56.1052 151.441 56.0145 151.113C55.9141 150.781 55.7451 150.48 55.5073 150.212C55.2553 149.949 54.8924 149.608 54.4187 149.191C53.8435 148.689 53.3981 148.249 53.0824 147.872C52.7621 147.505 52.548 147.064 52.4402 146.551C52.3277 146.047 52.4242 145.477 52.7297 144.843C52.9657 144.353 53.3176 143.954 53.7853 143.647C54.2531 143.339 54.8064 143.174 55.4454 143.15C56.0843 143.126 56.7497 143.281 57.4417 143.614Z" fill="#BD7045"/>
    <path d="M20.8127 118.219C21.6164 117.755 22.4461 117.645 23.3019 117.89C24.1431 118.131 24.889 118.815 25.5397 119.942L26.6117 121.799L30.6439 119.471L31.3719 120.732L21.714 126.308L19.914 123.19C19.2846 122.1 19.0706 121.122 19.2718 120.254C19.4677 119.377 19.9813 118.699 20.8127 118.219ZM24.5005 120.542C24.0951 119.84 23.644 119.411 23.1472 119.254C22.6503 119.098 22.1202 119.182 21.5567 119.508C20.365 120.196 20.1639 121.223 20.9532 122.59L22.0252 124.447L25.5725 122.399L24.5005 120.542Z" fill="#BD7045"/>
    <path d="M11.8141 101.82L22.6865 99.3381L23.0105 100.758L12.1381 103.239L11.8141 101.82Z" fill="#BD7045"/>
    <path d="M11.4776 82.1698L15.1952 82.4484L15.4989 78.3958L16.6955 78.4855L16.3918 82.5381L20.2211 82.8251L20.5606 78.2938L21.7573 78.3835L21.3089 84.3667L10.1721 83.5321L10.6205 77.5489L11.8172 77.6386L11.4776 82.1698Z" fill="#BD7045"/>
    <path d="M18.5507 66.0389C17.5379 65.6415 16.719 65.0565 16.094 64.2841C15.4591 63.5078 15.0671 62.6378 14.9182 61.6741C14.7733 60.7005 14.8898 59.7322 15.2678 58.769C15.712 57.6371 16.3728 56.7563 17.2502 56.1266C18.1275 55.497 19.1436 55.1853 20.2985 55.1916L19.6613 56.8151C18.9228 56.8575 18.2775 57.0856 17.7256 57.4992C17.1776 57.9029 16.7555 58.482 16.4593 59.2366C16.1748 59.9615 16.0884 60.6781 16.1999 61.3865C16.3115 62.0949 16.6158 62.7357 17.1127 63.3089C17.5997 63.8781 18.2603 64.3265 19.0943 64.6538C19.9185 64.9773 20.7076 65.0979 21.4618 65.0157C22.206 64.9297 22.8599 64.665 23.4235 64.2216C23.9871 63.7781 24.4112 63.194 24.6957 62.4692C24.9918 61.7146 25.0813 61.0049 24.9641 60.3401C24.8408 59.6615 24.5229 59.0554 24.0104 58.522L24.6475 56.8985C25.4885 57.6755 26.0164 58.5931 26.2313 59.6514C26.4362 60.7058 26.3165 61.799 25.8723 62.931C25.4943 63.8941 24.926 64.6852 24.1674 65.3042C23.4028 65.9093 22.5287 66.2824 21.5452 66.4235C20.5617 66.5646 19.5635 66.4364 18.5507 66.0389Z" fill="#BD7045"/>
    <path d="M26.5878 41.3874L29.5025 43.7118L32.0364 40.5344L32.9746 41.2826L30.4407 44.46L33.4429 46.8542L36.2761 43.3016L37.2143 44.0497L33.4733 48.7407L24.7418 41.7776L28.4828 37.0866L29.421 37.8348L26.5878 41.3874Z" fill="#BD7045"/>
    <path d="M43.1057 24.0496C43.9782 23.4548 44.8515 23.2208 45.7256 23.3478C46.5997 23.4748 47.3191 23.9526 47.884 24.781C48.5149 25.7064 48.6971 26.5891 48.4307 27.4292C48.1583 28.2604 47.533 29.0095 46.5547 29.6765L47.3713 30.9594L46.3269 31.6714L44.85 29.6187L45.2333 29.3574C46.1058 28.7625 46.6987 28.1646 47.012 27.5637C47.3253 26.9628 47.2326 26.2967 46.7338 25.5652C46.3733 25.0364 45.9293 24.7259 45.4017 24.6337C44.8741 24.5416 44.3415 24.6788 43.8039 25.0453C43.2575 25.4179 42.9278 25.8621 42.8148 26.3781C42.7046 26.8792 42.8238 27.3854 43.1723 27.8965L42.0354 28.6717C41.6749 28.1429 41.4784 27.5991 41.446 27.0402C41.4075 26.4726 41.5291 25.9314 41.8107 25.4166C42.1012 24.8959 42.5328 24.4402 43.1057 24.0496ZM48.6902 34.03C48.461 34.1862 48.2131 34.2391 47.9463 34.1886C47.6795 34.1381 47.468 33.9983 47.3117 33.7692C47.1555 33.54 47.1026 33.292 47.1531 33.0252C47.2036 32.7585 47.3434 32.5469 47.5726 32.3907C47.7929 32.2405 48.032 32.1936 48.29 32.2501C48.5568 32.3006 48.7683 32.4404 48.9246 32.6696C49.0808 32.8987 49.1337 33.1467 49.0832 33.4135C49.0415 33.6742 48.9105 33.8798 48.6902 34.03Z" fill="#BD7045"/>
    </g>
    <defs>
    <clipPath id="clip0">
    <rect width="182" height="183" fill="white"/>
    </clipPath>
    </defs>
    </svg>
