<?xml version="1.0" encoding="utf-8"?>
<!-- Generator: Adobe Illustrator 24.3.0, SVG Export Plug-In . SVG Version: 6.00 Build 0)  -->
<svg version="1.1" id="Layer_1" xmlns="http://www.w3.org/2000/svg" xmlns:xlink="http://www.w3.org/1999/xlink" x="0px" y="0px"
	 viewBox="0 0 146 146" style="enable-background:new 0 0 146 146;" xml:space="preserve">
<style type="text/css">
	.st0{fill-rule:evenodd;clip-rule:evenodd;fill:#BD7045;}
	.st1{fill:#BD7045;}
	.st2{fill:#FFFFFF;}
</style>
<path class="st0" d="M71.3,6.7h4.9V5.5h-4.9V1.9h5.6V0.6h-7.1V12H77v-1.2h-5.7V6.7z M93.8,16l1.4,0.4l3.4-10.9l-1.4-0.4l-2.6,8.4
	L91.7,3.5L90.2,3l-3.4,10.9l1.4,0.4L90.9,6L93.8,16z M115.5,14.8l1.2,0.8l-4.5,6.7c-0.6,0.9-1.4,1.4-2.3,1.6
	c-0.9,0.1-1.8-0.1-2.7-0.7c-0.9-0.6-1.5-1.4-1.7-2.2c-0.2-0.8,0-1.7,0.6-2.5l1.2,0.8c-0.4,0.5-0.5,1.1-0.4,1.6
	c0.1,0.5,0.4,0.9,1,1.3c0.5,0.3,1,0.5,1.6,0.4c0.5-0.1,1-0.4,1.4-1L115.5,14.8z M125.3,37.3c0.9-0.2,1.8-0.7,2.6-1.4l0.6-0.4
	c0.9-0.7,1.5-1.4,1.9-2.3c0.4-0.8,0.6-1.6,0.5-2.5c-0.1-0.8-0.4-1.6-1-2.3c-0.6-0.7-1.2-1.2-2-1.5c-0.8-0.3-1.6-0.3-2.5-0.1
	c-0.9,0.2-1.8,0.7-2.6,1.4l-0.6,0.5c-0.8,0.7-1.4,1.4-1.9,2.2c-0.4,0.8-0.6,1.6-0.5,2.4c0.1,0.8,0.4,1.6,1,2.3
	c0.6,0.7,1.2,1.2,2,1.5C123.6,37.5,124.4,37.6,125.3,37.3z M129.5,31.8c-0.2,0.9-0.9,1.7-1.9,2.6l-0.7,0.5c-1,0.8-2,1.2-2.9,1.3
	c-0.9,0-1.6-0.3-2.2-1.1c-0.6-0.8-0.8-1.6-0.5-2.5c0.2-0.9,0.9-1.8,1.9-2.6l0.7-0.5c1-0.8,2-1.2,2.9-1.2c0.9,0,1.7,0.3,2.2,1.1
	C129.6,30.1,129.7,30.9,129.5,31.8z M135.2,49.4l6.4,0.7l0.6,1.6l-8.1-1l-3.9,1.5l-0.5-1.4l3.9-1.5l5.2-6.3l0.6,1.6L135.2,49.4z
	 M133.7,68.4l0.1,1.5l11.3-0.9l-0.1-1.5L133.7,68.4z M131.4,91l0.3-1.5l9.8-3.6l-8.5-2l0.3-1.5l11.1,2.5l-0.3,1.5l-9.9,3.6l8.6,2
	l-0.3,1.5L131.4,91z M124.5,106.5c-0.1,0.7,0,1.4,0.3,2l3.6,2.1l2.1-3.6l-1.1-0.6l-1.3,2.3l-2.2-1.3c-0.1-0.4-0.1-0.8,0-1.2
	s0.3-0.9,0.6-1.4c0.5-0.9,1.2-1.4,2.2-1.5c0.9-0.1,2,0.1,3.1,0.8l0.8,0.5c1.2,0.7,1.9,1.4,2.3,2.2c0.4,0.8,0.3,1.6-0.2,2.5
	c-0.8,1.3-1.9,1.7-3.3,1.2l-0.8,1.3c1,0.4,2,0.5,2.9,0.1c0.9-0.3,1.6-1,2.2-2c0.7-1.3,0.9-2.5,0.5-3.6c-0.4-1.2-1.4-2.2-2.9-3
	l-0.9-0.5c-0.9-0.5-1.8-0.8-2.7-0.9c-0.9-0.1-1.7,0.1-2.4,0.5c-0.7,0.4-1.3,1-1.8,1.8C124.8,105,124.6,105.7,124.5,106.5z
	 M99.9,139.1l3.3-1.6l-4.4-9.1l1.3-0.6l4.4,9.1l3.3-1.6l0.5,1.1l-7.9,3.8L99.9,139.1z M79.4,133.8l-1.5,0.2l1.7,11.2l1.5-0.2
	l-0.7-4.8l5.7-0.9l0.7,4.8l1.5-0.2l-1.7-11.2L85,133l0.8,5.2l-5.7,0.9L79.4,133.8z M62.9,133.2l1.5,0.2l-1.7,11.2l-1.5-0.2
	L62.9,133.2z M46.6,135.1c-0.3-0.7-0.9-1.6-1.9-2.4c-0.8-0.7-1.3-1.3-1.5-1.7c-0.2-0.4-0.2-0.9,0-1.4c0.2-0.5,0.6-0.8,1.1-0.9
	c0.5-0.1,1.1,0,1.9,0.4c0.8,0.4,1.3,0.8,1.6,1.4c0.3,0.6,0.3,1.2,0,1.8l1.4,0.7c0.3-0.6,0.4-1.2,0.3-1.8c-0.1-0.6-0.4-1.2-0.9-1.8
	c-0.5-0.6-1.1-1-1.8-1.3c-1.1-0.5-2.1-0.7-3-0.5c-0.9,0.2-1.5,0.7-1.9,1.5c-0.3,0.5-0.4,1-0.3,1.5c0,0.5,0.2,1,0.6,1.5
	c0.3,0.5,0.9,1.1,1.6,1.8c0.7,0.6,1.2,1.2,1.4,1.7c0.2,0.5,0.2,0.9,0,1.3c-0.3,0.5-0.6,0.8-1.1,1c-0.5,0.1-1.1,0-1.8-0.3
	c-0.7-0.3-1.2-0.8-1.4-1.3c-0.2-0.5-0.2-1.1,0.1-1.7l-1.4-0.7c-0.3,0.6-0.4,1.2-0.3,1.8c0.1,0.6,0.3,1.2,0.7,1.7
	c0.4,0.5,1,1,1.7,1.3c1,0.5,2,0.6,2.9,0.4c0.9-0.2,1.5-0.7,1.9-1.5C46.8,136.6,46.9,135.8,46.6,135.1z M17.5,107.4l3.9-2.2l0.8,1.3
	l-9.9,5.7l-2.1-3.6c-0.6-1.1-0.8-2.1-0.6-3c0.2-0.9,0.7-1.7,1.7-2.2c1-0.6,1.9-0.7,2.7-0.4c0.9,0.3,1.6,1,2.3,2.1L17.5,107.4z
	 M16.5,108.1l-1.3-2.3c-0.4-0.7-0.9-1.1-1.4-1.3c-0.5-0.2-1.1-0.1-1.7,0.3c-0.6,0.3-0.9,0.8-1.1,1.4c-0.1,0.6,0,1.2,0.3,1.8l1.4,2.4
	L16.5,108.1z M13.9,87.1l-0.3-1.5L2.5,88.2l0.3,1.5L13.9,87.1z M7.5,65.1l-0.4,4.9l4,0.3l0.4-5.7l1.2,0.1l-0.5,7.2L0.9,71.1L1.5,64
	l1.2,0.1l-0.4,5.6L5.9,70L6.3,65L7.5,65.1z M16.9,47.8c-0.3-0.9-1-1.7-2.1-2.3L14.3,47c0.8,0.5,1.3,1,1.5,1.6c0.2,0.5,0.1,1.2-0.2,2
	c-0.3,0.9-0.9,1.4-1.8,1.6c-0.9,0.2-1.9,0.1-3-0.4l-1-0.4c-1.2-0.5-2.1-1.1-2.5-1.9c-0.5-0.8-0.5-1.6-0.2-2.5
	c0.3-0.7,0.7-1.2,1.2-1.5c0.5-0.3,1.3-0.3,2.1-0.1l0.6-1.4c-1.2-0.3-2.2-0.3-3.1,0.2c-0.9,0.4-1.6,1.2-2,2.3
	c-0.3,0.8-0.4,1.7-0.3,2.5c0.1,0.8,0.5,1.5,1.1,2.2c0.6,0.6,1.4,1.2,2.4,1.5l1,0.4c1.5,0.6,2.9,0.7,4,0.3c1.2-0.4,2-1.2,2.5-2.5
	C17.2,49.8,17.3,48.8,16.9,47.8z M23.5,29.6l-3.1,3.9l3.2,2.5l3.6-4.5l1,0.8l-4.5,5.6l-8.9-7.1l4.5-5.6l1,0.8l-3.5,4.4l2.9,2.3
	l3.1-3.9L23.5,29.6z M36,19.4c0.1,0.4,0.3,0.8,0.7,1.3l1.2-0.8c-0.4-0.7-0.6-1.3-0.6-1.8l0.2-1.2c0.2-1.2,0-2.2-0.5-2.9
	c-0.5-0.8-1.2-1.2-1.9-1.3c-0.8-0.1-1.5,0.1-2.3,0.6c-0.8,0.5-1.3,1.2-1.5,1.9c-0.2,0.8-0.1,1.5,0.4,2.2l1.2-0.8
	c-0.3-0.4-0.3-0.8-0.2-1.2c0.1-0.4,0.4-0.8,0.8-1.1c0.5-0.3,0.9-0.4,1.3-0.3c0.4,0.1,0.8,0.4,1.1,0.8c0.3,0.5,0.4,1,0.4,1.7L36,17.9
	C35.9,18.5,35.9,19,36,19.4z M37.8,22.2c0,0.2,0,0.4,0.2,0.6c0.1,0.2,0.3,0.3,0.5,0.4c0.2,0,0.4,0,0.7-0.2c0.2-0.2,0.4-0.3,0.4-0.5
	c0-0.2,0-0.4-0.1-0.6c-0.1-0.2-0.3-0.3-0.5-0.4c-0.2-0.1-0.4,0-0.7,0.2C38,21.8,37.8,22,37.8,22.2z M73,119c25.4,0,46-20.6,46-46
	S98.4,27,73,27S27,47.6,27,73S47.6,119,73,119z M73,121c26.5,0,48-21.5,48-48S99.5,25,73,25S25,46.5,25,73S46.5,121,73,121z"/>
<circle class="st1" cx="73" cy="72.9" r="48"/>
<path class="st2" d="M39.6,67.6c1.2,0,2.2,0.2,3.1,0.7s1.6,1.1,2,2c0.5,0.8,0.7,1.8,0.7,2.9c0,1.1-0.2,2.1-0.7,2.9
	c-0.5,0.9-1.2,1.5-2.1,2c-0.9,0.5-1.9,0.7-3.1,0.7h-4.2V67.6H39.6z M39.5,76.5c1,0,1.8-0.3,2.4-0.8s0.9-1.4,0.9-2.4
	c0-1-0.3-1.8-0.9-2.4c-0.6-0.6-1.4-0.9-2.4-0.9h-1.3v6.5H39.5z M54.8,79c-1.1,0-2-0.2-2.9-0.7c-0.9-0.5-1.6-1.2-2.1-2
	c-0.5-0.9-0.8-1.9-0.8-3c0-1.1,0.3-2.1,0.8-3c0.5-0.9,1.2-1.6,2.1-2c0.9-0.5,1.9-0.7,2.9-0.7s2,0.2,2.9,0.7c0.9,0.5,1.6,1.2,2.1,2
	c0.5,0.9,0.8,1.9,0.8,3c0,1.1-0.3,2.1-0.8,3c-0.5,0.9-1.2,1.6-2.1,2S55.8,79,54.8,79z M54.8,76.5c0.9,0,1.6-0.3,2.1-0.9
	c0.5-0.6,0.8-1.4,0.8-2.4c0-1-0.3-1.8-0.8-2.4c-0.5-0.6-1.2-0.9-2.1-0.9c-0.9,0-1.6,0.3-2.2,0.9c-0.5,0.6-0.8,1.4-0.8,2.4
	c0,1,0.3,1.8,0.8,2.4C53.1,76.2,53.9,76.5,54.8,76.5z M74.5,78.9h-2.7l-4.6-6.9v6.9h-2.7V67.6h2.7l4.6,7v-7h2.7V78.9z M85.8,76.9
	h-4.2l-0.7,2h-2.9l4.1-11.2h3.2l4.1,11.2h-2.9L85.8,76.9z M85.1,74.8l-1.4-4.1l-1.4,4.1H85.1z M101.1,67.6v2.2h-3v9h-2.7v-9h-3v-2.2
	H101.1z M107.6,69.8v2.3h3.7v2.1h-3.7v2.5h4.1v2.2h-6.9V67.6h6.9v2.2H107.6z"/>
</svg>
