<svg width="1071" height="473" viewBox="0 0 1071 473" fill="none" xmlns="http://www.w3.org/2000/svg">
<path d="M990.679 397.457L1027.14 361.002L1028.23 362.105L1015.37 375.379C1015.37 375.379 995.84 393.997 1023.67 395.62L1042.23 396.018V397.457H990.679Z" fill="#5F3117"/>
<path d="M990.679 397.457H1042.24V398.988L1023.76 399.279C1023.76 399.279 996.774 398.651 1015.3 419.458L1028.15 432.87L1027.14 433.896L990.679 397.457Z" fill="#5F3117"/>
<path d="M990.679 397.457L1027.14 433.912L1026.04 435.014L1012.76 422.153C1012.76 422.153 994.14 402.617 992.517 430.436L992.119 449.008H990.679V397.457Z" fill="#5F3117"/>
<path d="M990.68 397.457V449.008H989.148L988.842 430.528C988.842 430.528 989.485 403.566 968.674 422.092L955.259 434.937L954.233 433.912L990.68 397.457Z" fill="#5F3117"/>
<path d="M990.679 397.457L954.217 433.912L953.114 432.809L965.978 419.535C965.978 419.535 985.503 400.917 957.693 399.294L939.118 398.896V397.457H990.679Z" fill="#5F3117"/>
<path d="M990.679 397.457H939.118V395.926L957.601 395.635C957.601 395.635 984.569 396.263 966.039 375.455L953.191 362.043L954.217 361.017L990.679 397.457Z" fill="#5F3117"/>
<path d="M990.679 397.457L954.217 361.002L955.304 359.915L968.597 372.776C968.597 372.776 987.218 392.297 988.841 364.478L989.239 345.906H990.679V397.457Z" fill="#5F3117"/>
<path d="M990.679 397.457V345.906H992.211L992.502 364.386C992.502 364.386 991.874 391.348 1012.69 372.822L1026.1 359.991L1027.13 361.002L990.679 397.457Z" fill="#5F3117"/>
<path d="M141.423 346.028H87.0437L87.7175 342.139L91.1478 340.991C99.5397 337.791 108.728 321.347 184.148 205.537H188.252C190.534 219.699 196.476 249.157 201.285 272.231C209.967 317.014 212.709 336.658 219.784 340.991L222.295 342.139L221.391 346.028H163.352L164.041 342.139L176.109 340.96C183.888 340.057 187.089 337.087 187.089 332.509C187.089 325.206 184.347 307.384 181.821 291.629C166.982 291.629 151.898 291.859 136.354 292.762C126.308 312.176 119.907 327.257 119.907 333.427C119.907 337.546 122.648 339.368 128.36 340.287L142.143 342.109L141.423 346.028ZM170.213 233.403C158.329 252.817 147.579 271.557 139.126 287.541C153.061 288.23 167.227 288.23 181.177 288.23C180.948 286.623 180.718 285.03 180.488 283.637C177.288 266.076 172.954 245.284 170.213 233.403Z" fill="#5F3117"/>
<path d="M258.803 206.226C255.373 206.226 249.431 212.611 242.57 223.803L240.518 221.292C250.794 203.47 262.218 190.67 274.331 190.67C280.962 190.67 285.525 195.463 285.525 205.981C285.525 231.565 258.803 304.199 258.803 324.532C258.803 328.191 259.936 330.243 262.218 330.243C266.107 330.243 271.82 324.302 278.91 312.421L280.962 314.932C270.671 333.213 259.033 348.294 246.69 348.294C239.599 348.294 234.576 343.272 234.576 332.984C234.576 310.37 262.218 235.898 262.218 211.906C262.279 208.278 260.916 206.226 258.803 206.226Z" fill="#5F3117"/>
<path d="M313.458 206.226C310.027 206.226 304.101 212.611 297.24 223.803L295.188 221.292C305.464 203.47 316.888 190.67 329.001 190.67C335.632 190.67 340.196 195.463 340.196 205.981C340.196 231.565 313.458 304.199 313.458 324.532C313.458 328.191 314.606 330.243 316.888 330.243C320.778 330.243 326.49 324.302 333.565 312.421L335.632 314.932C325.341 333.213 313.687 348.294 301.344 348.294C294.269 348.294 289.247 343.272 289.247 332.984C289.247 310.37 316.888 235.898 316.888 211.906C316.888 208.278 315.464 206.226 313.458 206.226Z" fill="#5F3117"/>
<path d="M371.267 283.208C369.915 289.514 369.227 295.943 369.215 302.392C369.215 322.296 378.802 331.406 389.996 331.406C402.339 331.406 414.223 320.888 424.054 303.311L427.01 305.133C416.045 329.339 399.138 348.309 377.668 348.309C360.303 348.309 344.989 333.687 344.989 309.925C344.989 272.919 369.889 233.632 413.304 233.632C427.01 233.632 434.743 240.705 434.743 249.846C434.789 264.238 412.4 277.267 371.267 283.208ZM371.727 281.141C400.746 273.149 416.045 260.364 416.045 250.305C416.101 248.749 415.84 247.198 415.277 245.746C414.715 244.295 413.862 242.973 412.772 241.861C411.681 240.749 410.376 239.871 408.935 239.28C407.494 238.69 405.948 238.398 404.391 238.424C389.782 238.378 376.979 258.527 371.727 281.141Z" fill="#5F3117"/>
<path d="M465.401 323.184C465.335 323.921 465.432 324.662 465.685 325.357C465.937 326.052 466.339 326.683 466.861 327.206C467.384 327.729 468.015 328.13 468.71 328.382C469.405 328.635 470.147 328.731 470.883 328.666C482.078 328.666 500.592 314.503 526.411 235.684H551.296C543.762 260.365 533.011 296.927 528.678 319.296C521.143 354.924 490.056 386.448 455.172 386.448C437.346 386.448 426.382 379.604 431.175 362.701C446.054 366.545 461.29 368.838 476.641 369.545C496.549 369.775 502.231 365.672 505.891 343.058C507.422 331.177 508.173 318.147 509.995 306.955C511.373 296.238 517.085 274.803 520.975 260.809L519.597 260.365C495.385 324.547 477.101 346.028 458.341 346.028C446.917 346.028 441.894 338.71 441.894 329.339C441.894 311.303 462.001 271.159 462.001 256.476C462.001 253.276 460.639 251.454 458.341 251.454C454.697 251.454 448.985 257.394 441.894 269.26L439.613 266.519C449.888 248.483 461.542 233.402 473.885 233.402C480.975 233.402 485.768 238.654 485.768 249.616C485.738 266.749 465.401 307.874 465.401 323.184Z" fill="#5F3117"/>
<path d="M643.853 285.842C635.17 305.945 626.717 326.737 615.966 350.484H612.766C607.283 337.01 596.089 312.345 587.406 294.523C567.988 253.398 565.017 244.273 557.713 240.614L554.971 239.006V235.776H608.662V238.96L600.208 239.879C592.674 240.798 589.489 243.309 589.489 247.871C589.489 253.582 597.253 268.893 605.936 286.255C611.418 297.677 619.412 314.35 624.205 323.261C631.066 308.18 637.007 295.166 642.49 283.055C627.406 250.612 624.205 242.849 618.279 240.109L615.537 238.96V235.776H674.71V238.96L670.59 240.338C665.797 241.701 661.234 249.249 652.321 267.515C654.373 271.174 656.425 275.063 658.447 278.937C665.981 292.885 677.175 313.432 683.577 323.95C698.645 287.388 705.276 265.234 705.016 254.271C704.786 245.59 700.422 241.701 693.592 240.568L681.708 238.96V235.776H733.117V238.96L730.605 240.338C722.611 244.227 715.077 263.412 675.093 350.208H672.122C666.854 336.964 655.43 310.4 646.977 292.655C645.905 290.435 644.986 288.077 643.853 285.842ZM640.652 243.125C640.652 247.014 645.246 255.006 650.698 264.82C654.128 256.598 657.329 249.509 657.329 244.488C657.329 240.384 654.817 238.562 649.105 238.562C643.623 238.516 640.652 240.338 640.652 243.079V243.125Z" fill="#5F3117"/>
<path d="M794.877 322.342L793.499 322.113C788.017 335.602 772.948 347.467 757.175 347.467C737.527 347.467 726.547 335.142 726.547 321.883C726.547 308.869 747.558 299.729 794.632 289.914V286.025C794.632 249.28 790.972 241.257 773.836 241.257C759.441 241.257 752.397 247.871 752.397 261.804C752.397 266.611 753.086 274.604 753.76 281.004L730.912 284.433C729.549 250.382 761.08 233.479 785.061 233.479C806.5 233.479 817.741 242.849 817.741 263.641C817.511 271.633 817.051 285.566 817.051 295.396C817.051 326.461 818.2 331.024 823.453 331.024C829.165 331.024 831.906 325.083 833.958 299.269L836.699 299.499C834.417 332.861 827.342 346.564 813.851 346.564C800.819 346.564 795.337 337.424 794.877 322.342ZM793.499 316.218C794.418 311.426 794.647 307.537 794.647 295.442C779.563 297.493 766.087 300.035 756.041 303.204C750.544 304.735 747.803 307.093 747.803 312.391C747.803 323.353 755.812 329.983 771.799 329.983C781.171 329.891 792.136 325.542 793.499 316.172V316.218Z" fill="#5F3117"/>
<path d="M830.972 384.03C831.891 374.659 832.503 366.438 833.254 358.001C841.577 361.162 850.385 362.861 859.287 363.023C871.63 363.023 883.054 359.134 890.818 346.809C884.203 332.876 873.973 312.773 864.325 294.263C841.247 249.953 839.18 244.457 833.698 241.272L830.283 238.976V235.776H888.077V238.96L876.883 240.109C870.941 240.798 868.429 242.16 868.429 245.59C868.429 250.183 875.06 264.545 883.284 281.463C889.685 294.477 897.219 309.099 902.931 319.832C918.245 285.107 924.646 267.071 924.646 258.849C924.646 248.132 920.527 241.701 911.844 240.338L900.19 238.96V235.776H953.651V238.96L950.45 240.568C942.916 245.161 934.692 261.36 894.019 347.023C881.247 373.97 867.526 385.362 849.027 385.362C842.98 385.467 836.937 385.021 830.972 384.03Z" fill="#5F3117"/>
<path d="M939.378 397.457H35.6351V164.887C35.577 154.074 36.7379 143.288 39.0961 132.735C47.0439 97.9332 72.9548 34.5162 156.201 34.5162C271.054 34.5162 279.798 144.753 279.798 167.306" stroke="#5F3117" stroke-width="3.0456" stroke-miterlimit="10"/>
<path d="M114.945 167.245H94.3176V166.188L97.7326 165.56C101.484 164.81 101.546 164.382 101.546 149.484C101.546 137.71 101.423 133.285 101.04 131.111C93.751 131.601 93.0006 132.857 91.1936 138.093L88.1308 147.616H87.2886C88.1002 141.492 88.7128 135.153 89.0343 129.917H120.489C120.734 135.153 121.3 141.507 122.02 147.616H120.979L118.115 138.093C116.431 132.857 115.879 131.739 108.207 131.05C107.84 133.347 107.717 137.282 107.717 147.249C107.717 164.749 107.901 164.887 111.699 165.622L115.007 166.188L114.945 167.245Z" fill="#5F3117"/>
<path d="M169.095 148.122C166.032 147.999 162.969 147.999 159.907 147.999C156.844 147.999 153.597 147.999 150.489 148.122C150.489 164.81 150.672 165.132 153.291 165.622L156.476 166.188V167.245H138.299V166.188L141.545 165.561C144.225 165.071 144.225 164.443 144.225 149.622C144.225 132.168 144.103 131.862 141.545 131.418L138.238 130.928V129.856H156.384V130.928L152.709 131.479C150.642 131.862 150.458 132.597 150.458 146.79C153.521 146.927 156.583 146.927 159.876 146.927C163.168 146.927 166.093 146.927 169.064 146.79C169.064 132.03 168.819 131.785 166.384 131.341L163.077 130.851V129.779H181.208V130.851L177.533 131.402C175.481 131.785 175.297 132.52 175.297 147.172C175.297 164.734 175.419 165.055 178.099 165.545L181.269 166.112V167.168H163.168V166.112L166.415 165.484C169.095 164.994 169.095 164.366 169.095 149.546V148.122Z" fill="#5F3117"/>
<path d="M227.608 167.245H197.257V166.189L200.687 165.561C202.984 165.071 203.045 164.504 203.045 149.362C203.045 132.046 202.861 131.862 200.243 131.418L197.073 130.928V129.856H227.164C227.348 133.975 227.731 139.15 228.282 144.065H227.287L225.357 138.155C223.244 132.735 221.498 131.54 209.661 130.989C209.339 132.52 209.217 135.582 209.217 147.739C217.011 147.617 218.068 146.683 218.88 143.146L219.569 139.165H220.243C220.243 143.59 220.809 153.19 221.314 157.538H220.625L219.507 153.618C218.313 149.699 216.95 149.025 209.217 148.75C209.217 161.213 209.4 164.458 209.661 166.081C221.621 165.576 223.795 164.55 225.74 159.1L227.792 152.501H228.726C228.175 157.584 227.792 162.943 227.608 167.245Z" fill="#5F3117"/>
<path d="M1032.65 414.62L1047.97 421.617" stroke="#5F3117" stroke-width="3.0456" stroke-miterlimit="10"/>
<path d="M933.298 372.745L948.597 379.804" stroke="#5F3117" stroke-width="3.0456" stroke-miterlimit="10"/>
<path d="M1008.11 355.444L1015.12 340.133" stroke="#5F3117" stroke-width="3.0456" stroke-miterlimit="10"/>
<path d="M966.238 454.765L973.283 439.485" stroke="#5F3117" stroke-width="3.0456" stroke-miterlimit="10"/>
</svg>
