<svg width="105" height="44" viewBox="0 0 105 44" fill="none" xmlns="http://www.w3.org/2000/svg">
    <path d="M52.5946 42.0923C38.281 42.2333 25.3457 39.9918 16.0118 36.2907C11.3423 34.4392 7.62294 32.2417 5.08014 29.837C2.54021 27.435 1.23591 24.8907 1.21046 22.3074C1.18501 19.7241 2.43894 17.1546 4.93105 14.7031C7.42599 12.2487 11.1014 9.97831 15.7334 8.03517C24.9926 4.15096 37.8813 1.65504 52.1948 1.51403C66.5083 1.37303 79.4437 3.61455 88.7776 7.31559C93.447 9.1671 97.1664 11.3647 99.7092 13.7694C102.249 16.1714 103.553 18.7157 103.579 21.2989C103.604 23.8822 102.35 26.4517 99.8583 28.9033C97.3634 31.3576 93.688 33.628 89.0559 35.5712C79.7968 39.4554 66.9081 41.9513 52.5946 42.0923Z" stroke="#B27C7C" stroke-width="2" />
</svg>
