<svg width="20" height="20" viewBox="0 0 20 20" fill="none" xmlns="http://www.w3.org/2000/svg">
<path d="M16.4318 4.59477C16.424 4.70218 16.395 4.80697 16.3462 4.903C16.2975 4.99903 16.2301 5.08437 16.1479 5.15402C16.0774 5.23381 15.9916 5.29857 15.8955 5.34445C15.7994 5.39032 15.6951 5.41637 15.5887 5.42103C15.3677 5.42908 15.1524 5.34977 14.9895 5.20027C14.8443 5.03622 14.7689 4.822 14.7793 4.60318C14.779 4.49681 14.7997 4.39143 14.8403 4.2931C14.8809 4.19477 14.9405 4.10543 15.0157 4.03021C15.0909 3.95499 15.1803 3.89538 15.2786 3.8548C15.3769 3.81422 15.4823 3.79347 15.5887 3.79375C15.8042 3.78437 16.0148 3.85985 16.1753 4.00399C16.3341 4.16026 16.426 4.37205 16.4318 4.59477Z" stroke="#5F3117" stroke-miterlimit="10"/>
<path d="M14.5019 9.95059C14.5063 10.1571 14.4957 10.3637 14.4703 10.5687C14.4303 10.771 14.3748 10.9699 14.3043 11.1637C14.2553 11.364 14.1907 11.5601 14.1108 11.7503C14.0285 11.939 13.9329 12.1216 13.8249 12.2969C13.7058 12.4655 13.5751 12.6257 13.4338 12.7763C13.3047 12.9368 13.1642 13.0879 13.0134 13.2283C12.8564 13.3628 12.6898 13.4857 12.5151 13.5962C12.3334 13.6933 12.1451 13.7776 11.9516 13.8485C11.7698 13.943 11.5815 14.0245 11.3882 14.0924C11.1912 14.1513 10.9902 14.1963 10.7869 14.2269C10.5827 14.2549 10.3769 14.2689 10.1709 14.269C9.96461 14.2769 9.75803 14.2699 9.55277 14.248C9.35019 14.2072 9.15122 14.1503 8.95778 14.0777C8.75771 14.0306 8.56159 13.968 8.3712 13.8905C8.1834 13.8051 8.0021 13.706 7.82878 13.5941C7.65992 13.473 7.49974 13.3402 7.34943 13.1967C7.18853 13.0672 7.0368 12.9267 6.8953 12.7763C6.76751 12.6145 6.65157 12.4438 6.5484 12.2654C6.43029 12.0975 6.32352 11.9219 6.22883 11.7398C6.15369 11.5482 6.09256 11.3515 6.04592 11.1511C5.98005 10.956 5.92806 10.7564 5.89034 10.554C5.86529 10.3503 5.85405 10.1452 5.8567 9.94008C5.84817 9.73385 5.8545 9.52728 5.87562 9.32197C5.91882 9.12413 5.97572 8.92954 6.04592 8.73959C6.09817 8.53905 6.1642 8.34236 6.24355 8.15092C6.32612 7.96261 6.42239 7.78061 6.53158 7.60639C6.64229 7.4326 6.76599 7.26744 6.90161 7.11232C7.03988 6.96163 7.18884 6.8211 7.34732 6.69183C7.49789 6.55058 7.65806 6.41991 7.82668 6.30078C8.00806 6.20446 8.19558 6.12018 8.38802 6.04849C8.56834 5.95028 8.7552 5.86458 8.94727 5.79199C9.14691 5.74004 9.34994 5.7021 9.55487 5.67846C9.75764 5.64177 9.96283 5.61998 10.1688 5.61329C10.3756 5.61297 10.5822 5.62772 10.7869 5.65744C10.9905 5.69232 11.1915 5.7415 11.3882 5.80461C11.5826 5.87316 11.7723 5.95463 11.9558 6.04849C12.1397 6.1374 12.3174 6.23854 12.4878 6.35124C12.6699 6.44786 12.8449 6.55747 13.0113 6.67922C13.1526 6.82437 13.2839 6.9789 13.4044 7.14175C13.5552 7.28595 13.6957 7.4405 13.8249 7.60428C13.9208 7.78674 14.0037 7.97573 14.073 8.16984C14.173 8.34987 14.2601 8.53676 14.3337 8.72908C14.3843 8.92882 14.4208 9.13185 14.443 9.33668C14.4776 9.53961 14.4973 9.74479 14.5019 9.95059V9.95059Z" stroke="#5F3117" stroke-miterlimit="10"/>
<path d="M15.2334 19.2722C14.9181 19.2722 14.9181 19.3121 14.6027 19.3121C14.2873 19.3121 14.2852 19.2827 13.972 19.2827C13.6587 19.2827 13.6545 19.3058 13.3412 19.3058C13.028 19.3058 13.0238 19.3058 12.7105 19.3058C12.3973 19.3058 12.393 19.2701 12.0798 19.2701C11.7665 19.2701 11.7644 19.289 11.4491 19.289C11.1337 19.289 11.1316 19.3058 10.8183 19.3058C10.5051 19.3058 10.5009 19.2911 10.1876 19.2911C9.87434 19.2911 9.87224 19.2911 9.55688 19.2911C9.24151 19.2911 9.23941 19.2911 8.92615 19.2911C8.61289 19.2911 8.61078 19.2911 8.29542 19.2911H7.66469C7.34723 19.2911 7.34723 19.3163 7.03396 19.3163C6.7207 19.3163 6.7165 19.329 6.40324 19.329C6.08997 19.329 6.04582 19.2953 5.73046 19.2953C5.4151 19.2953 5.41299 19.2953 5.09973 19.2953C4.88831 19.2933 4.67739 19.2743 4.469 19.2385C4.2555 19.2096 4.0446 19.1639 3.83828 19.1019C3.63665 19.0344 3.44054 18.9515 3.2517 18.8538C3.0582 18.7647 2.87192 18.6607 2.69456 18.5426C2.52939 18.4066 2.37542 18.2576 2.23412 18.0969C2.0905 17.9464 1.95903 17.7847 1.84097 17.6134C1.71563 17.4437 1.60385 17.2645 1.50668 17.0773C1.40018 16.8926 1.3081 16.7 1.23127 16.5012C1.17829 16.2941 1.14173 16.0833 1.12194 15.8705C1.07478 15.663 1.04455 15.4521 1.03154 15.2397C1.03154 14.9223 1.03154 14.9223 1.03154 14.609C1.03154 14.2957 1 14.2873 1 13.972C1 13.6566 1 13.6545 1 13.3412C1 13.028 1.05046 13.0238 1.05046 12.7105C1.05046 12.3973 1.05046 12.3952 1.05046 12.0798C1.05046 11.7644 1.00631 11.7623 1.00631 11.4491C1.00631 11.1358 1.02102 11.1316 1.02102 10.8183C1.02102 10.5051 1.02102 10.5009 1.02102 10.1876C1.02102 9.87434 1.02102 9.87014 1.02102 9.55688C1.02102 9.24361 1.04836 9.23941 1.04836 8.92615C1.04836 8.61289 1.04836 8.61078 1.04836 8.29542C1.04836 7.98006 1.04836 7.97795 1.04836 7.66469C1.04836 7.35143 1.04836 7.34723 1.04836 7.03396C1.04836 6.7207 1 6.68076 1 6.36749C1 6.05423 1 6.05003 1 5.73677C1 5.42351 1.05046 5.4193 1.05046 5.10604C1.05031 4.89478 1.06719 4.68386 1.10092 4.47531C1.16244 4.05541 1.29241 3.64845 1.48566 3.27062C1.56875 3.06783 1.66861 2.87233 1.78421 2.68615C1.91828 2.52195 2.06521 2.36869 2.22361 2.22782C2.37001 2.07224 2.52816 1.92815 2.69666 1.79682C2.86851 1.66899 3.04984 1.55443 3.23908 1.45412C3.43652 1.37351 3.6396 1.30745 3.84669 1.2565C4.04546 1.18051 4.25007 1.12075 4.45849 1.07779C4.66802 1.05653 4.87885 1.05091 5.08922 1.06097C5.40669 1.06097 5.40669 1.02102 5.71995 1.02102C6.03321 1.02102 6.03741 1.04625 6.35068 1.04625C6.66394 1.04625 6.66604 1.01892 6.9814 1.01892C7.29677 1.01892 7.29677 1.06518 7.61213 1.06518C7.9275 1.06518 7.93801 1.0042 8.25968 1.0042C8.58135 1.0042 8.57714 1.03364 8.89041 1.03364C9.20367 1.03364 9.20787 1.0042 9.52113 1.0042C9.8344 1.0042 9.8365 1.0042 10.1519 1.0042C10.4672 1.0042 10.4693 1.05887 10.7826 1.05887C11.0959 1.05887 11.098 1.03995 11.4133 1.03995C11.7287 1.03995 11.7308 1.02313 12.044 1.02313C12.3573 1.02313 12.3615 1.03364 12.6748 1.03364C12.988 1.03364 12.9901 1.01472 13.3055 1.01472C13.6209 1.01472 13.623 1 13.9362 1C14.2495 1 14.2537 1.01892 14.567 1.01892C14.8802 1.01892 14.8844 1.01892 15.1977 1.01892C15.4086 1.0166 15.6195 1.02995 15.8284 1.05887C16.0422 1.09199 16.2531 1.1419 16.4591 1.20814C16.6714 1.28355 16.8768 1.3771 17.073 1.48776C17.4537 1.67815 17.802 1.92717 18.1053 2.22571C18.2626 2.37032 18.4075 2.52785 18.5384 2.69666C18.6577 2.87401 18.7618 3.06108 18.8496 3.2559C19.0333 3.63872 19.1614 4.04578 19.2301 4.4648C19.2692 4.67299 19.2924 4.88383 19.2995 5.09553C19.2995 5.41299 19.3226 5.41299 19.3226 5.72625C19.3226 6.03952 19.2911 6.05003 19.2911 6.36329C19.2911 6.67655 19.268 6.68076 19.268 6.99402C19.268 7.30728 19.31 7.31148 19.31 7.62475C19.31 7.93801 19.2974 7.94011 19.2974 8.25547C19.2974 8.57084 19.3205 8.57084 19.3205 8.8862C19.3205 9.20157 19.2848 9.20367 19.2848 9.51693C19.2848 9.83019 19.2638 9.8344 19.2638 10.1477C19.2638 10.4609 19.2806 10.463 19.2806 10.7784C19.2806 11.0937 19.2638 11.0959 19.2638 11.4091C19.2638 11.7224 19.2911 11.7245 19.2911 12.0398C19.2911 12.3552 19.2764 12.3573 19.2764 12.6706C19.2764 12.9838 19.3058 12.988 19.3058 13.3013C19.3058 13.6146 19.289 13.6188 19.289 13.932C19.289 14.2453 19.3121 14.2495 19.3121 14.5628C19.3121 14.876 19.268 14.8802 19.268 15.1935C19.2746 15.4041 19.2655 15.6149 19.2407 15.8242C19.1615 16.2417 19.0272 16.6468 18.8412 17.0289C18.7476 17.233 18.6365 17.4286 18.509 17.6134C18.3955 17.7946 18.2683 17.9668 18.1285 18.1285C17.9651 18.2668 17.7915 18.3926 17.6092 18.5048C17.4424 18.6357 17.266 18.7537 17.0815 18.858C16.8902 18.9523 16.692 19.0317 16.4886 19.0956C16.2878 19.1651 16.0818 19.2185 15.8726 19.2554C15.6603 19.278 15.4466 19.2836 15.2334 19.2722V19.2722Z" stroke="#5F3117" stroke-miterlimit="10"/>
</svg>
