<svg id="Layer_1" data-name="Layer 1" xmlns="http://www.w3.org/2000/svg" viewBox="0 0 302.56 373.74"><defs><style>.cls-1{fill:#5f321a;}.cls-2{fill:#231f20;}.cls-2,.cls-3{stroke:#5f321a;stroke-miterlimit:10;stroke-width:2px;}.cls-3{fill:none;}</style></defs><g id="new"><path class="cls-1" d="M245.87,286.62l23.81-23.81.72.71L262,272.2s-12.75,12.16,5.41,13.21l12.13.26v.95Z"/><path class="cls-1" d="M245.87,286.62h33.67v1l-12.07.19S249.86,287.4,262,301l8.39,8.75-.67.67Z"/><path class="cls-1" d="M245.87,286.62l23.81,23.8-.71.72-8.68-8.4s-12.16-12.75-13.22,5.42l-.26,12.12h-.94Z"/><path class="cls-1" d="M245.87,286.62v33.67h-1l-.19-12.07s.41-17.62-13.18-5.52l-8.76,8.39-.67-.66Z"/><path class="cls-1" d="M245.87,286.62l-23.81,23.8-.71-.71,8.4-8.68s12.75-12.16-5.42-13.21l-12.12-.26v-.95Z"/><path class="cls-1" d="M245.87,286.62H212.2v-1l12.07-.19s17.62.42,5.52-13.18l-8.39-8.75.66-.68Z"/><path class="cls-1" d="M245.87,286.62l-23.81-23.81.72-.72,8.67,8.4s12.16,12.75,13.22-5.42l.26-12.12h.94Z"/><path class="cls-1" d="M245.87,286.62V252.94h1l.2,12.08s-.42,17.61,13.17,5.51l8.76-8.39.67.67Z"/></g><path class="cls-1" d="M120.39,252.94H74l.59-3.32,2.92-1c7.22-2.73,15-16.77,79.37-115.64h3.51c1.95,12.09,7,37.24,11.11,56.94,7.42,38.22,9.76,55,15.8,58.7l2.15,1-.78,3.32H139.11l.59-3.32,10.33-1c6.63-.78,9.37-3.32,9.37-7.22,0-6.24-2.34-21.45-4.49-34.91-12.68,0-25.55.2-38.81,1-8.58,16.58-14,29.45-14,34.71,0,3.51,2.34,5.07,7.22,5.85l11.7,1.56ZM145,156.8c-10.14,16.57-19.3,32.56-26.52,46.21,11.9.59,24,.59,35.88.59-.19-1.37-.38-2.73-.58-3.9C151,184.68,147.3,166.94,145,156.8Z"/><line class="cls-2" x1="273.23" y1="297.81" x2="283.2" y2="302.37"/><line class="cls-2" x1="208.49" y1="270.52" x2="218.45" y2="275.12"/><line class="cls-2" x1="257.23" y1="259.24" x2="261.8" y2="249.27"/><line class="cls-2" x1="229.95" y1="323.98" x2="234.54" y2="314.02"/><path class="cls-3" d="M222.34,161.1V148.26a90.67,90.67,0,0,0-90.66-90.67h0A90.67,90.67,0,0,0,41,148.26V286.62H222.19"/></svg>