<svg id="Layer_1" data-name="Layer 1" xmlns="http://www.w3.org/2000/svg" viewBox="0 0 729.41 373.74"><defs><style>.cls-1{fill:#5f321a;}.cls-2{fill:#231f20;}.cls-2,.cls-3{stroke:#5f321a;stroke-miterlimit:10;stroke-width:2px;}.cls-3{fill:none;}</style></defs><g id="new"><path class="cls-1" d="M670.83,286.55l23.81-23.81.72.71-8.4,8.68s-12.75,12.16,5.41,13.21l12.13.26v.95Z"/><path class="cls-1" d="M670.83,286.55H704.5v1l-12.07.19s-17.61-.42-5.51,13.18l8.39,8.75-.67.68Z"/><path class="cls-1" d="M670.83,286.55l23.81,23.81-.72.71-8.67-8.4s-12.16-12.75-13.22,5.42l-.26,12.12h-.94Z"/><path class="cls-1" d="M670.83,286.55v33.67h-1l-.19-12.07s.41-17.62-13.18-5.52L647.69,311l-.67-.66Z"/><path class="cls-1" d="M670.83,286.55,647,310.36l-.71-.72,8.4-8.67s12.75-12.17-5.42-13.22l-12.12-.26v-.95Z"/><path class="cls-1" d="M670.83,286.55H637.16v-1l12.07-.19s17.62.42,5.52-13.18l-8.39-8.75.66-.68Z"/><path class="cls-1" d="M670.83,286.55,647,262.74l.72-.72,8.67,8.4s12.16,12.75,13.22-5.42l.26-12.12h.94Z"/><path class="cls-1" d="M670.83,286.55V252.88h1L672,265s-.42,17.61,13.17,5.51l8.76-8.39.67.67Z"/></g><path class="cls-1" d="M116.26,253H80.75l.45-2.53,2.23-.75c5.52-2.09,11.49-12.83,60.73-88.48h2.68c1.5,9.25,5.37,28.5,8.51,43.57,5.67,29.24,7.46,42.08,12.08,44.91l1.65.75-.6,2.53h-37.9l.45-2.53,7.91-.75c5.07-.6,7.16-2.54,7.16-5.52,0-4.77-1.79-16.41-3.43-26.71-9.7,0-19.55.15-29.69.75-6.57,12.68-10.75,22.53-10.75,26.56,0,2.68,1.79,3.88,5.52,4.47l9,1.2Zm18.8-73.55c-7.76,12.68-14.77,24.91-20.29,35.36,9.1.44,18.35.44,27.45.44-.15-1-.3-2.08-.45-3C139.68,200.73,136.85,187.15,135.06,179.4Z"/><path class="cls-1" d="M193,161.64c-2.24,0-6.12,4.18-10.6,11.49L181,171.49c6.72-11.64,14.18-20,22.08-20,4.33,0,7.31,3.13,7.31,10,0,16.71-17.45,64.16-17.45,77.44,0,2.38.74,3.73,2.24,3.73,2.53,0,6.26-3.88,10.89-11.64l1.34,1.64c-6.71,11.94-14.32,21.78-22.38,21.78-4.62,0-7.91-3.28-7.91-10,0-14.77,18.06-63.41,18.06-79.08C195.19,163,194.29,161.64,193,161.64Z"/><path class="cls-1" d="M228.61,161.64c-2.24,0-6.12,4.18-10.6,11.49l-1.34-1.64c6.71-11.64,14.17-20,22.08-20,4.33,0,7.31,3.13,7.31,10,0,16.71-17.45,64.16-17.45,77.44,0,2.38.74,3.73,2.23,3.73,2.54,0,6.27-3.88,10.9-11.64l1.34,1.64c-6.72,11.94-14.33,21.78-22.38,21.78-4.63,0-7.91-3.28-7.91-10,0-14.77,18.05-63.41,18.05-79.08C230.84,163,230,161.64,228.61,161.64Z"/><path class="cls-1" d="M266.35,211.92A61.16,61.16,0,0,0,265,224.46c0,13,6.27,18.94,13.58,18.94,8.05,0,15.81-6.86,22.23-18.35l1.94,1.2c-7.16,15.81-18.21,28.19-32.23,28.19-11.34,0-21.34-9.54-21.34-25.06,0-24.17,16.27-49.83,44.61-49.83,9,0,14,4.62,14,10.59C307.83,199.54,293.21,208,266.35,211.92Zm.3-1.34c19-5.22,29-13.58,29-20.14a7.49,7.49,0,0,0-7.61-7.76C278.44,182.68,270.08,195.81,266.65,210.58Z"/><path class="cls-1" d="M327.82,238a3.3,3.3,0,0,0,3.58,3.58c7.31,0,19.4-9.25,36.26-60.72h16.26C379,197,372,220.87,369.15,235.5c-4.92,23.27-25.21,43.86-48,43.86-11.64,0-18.8-4.48-15.67-15.52a146.07,146.07,0,0,0,29.69,4.48c13,.15,16.71-2.54,19.1-17.31,1-7.76,1.49-16.26,2.69-23.57.89-7,4.62-21,7.16-30.14l-.9-.3c-15.81,41.93-27.75,55.95-40,55.95-7.46,0-10.74-4.77-10.74-10.89,0-11.79,13.12-38.05,13.12-47.59,0-2.09-.89-3.29-2.38-3.29-2.39,0-6.12,3.88-10.74,11.64L311,201c6.72-11.79,14.33-21.63,22.38-21.63,4.63,0,7.76,3.43,7.76,10.59C341.1,201.18,327.82,228,327.82,238Z"/><path class="cls-1" d="M444.35,213.62c-5.67,13.13-11.19,26.7-18.2,42.22h-2.09c-3.58-8.8-10.89-24.92-16.56-36.55-12.69-26.86-14.63-32.83-19.4-35.21L386.31,183v-2.09h35.06V183l-5.52.6c-4.92.59-7,2.24-7,5.22,0,3.73,5.07,13.73,10.74,25.07,3.58,7.46,8.8,18.35,11.94,24.17,4.47-9.85,8.35-18.36,11.93-26.26-9.84-21.19-11.93-26.26-15.81-28.05l-1.79-.75v-2.09h38.64V183l-2.69.9c-3.13.89-6.11,5.82-11.93,17.75,1.34,2.39,2.68,4.92,4,7.46,4.92,9.1,12.23,22.53,16.41,29.39,9.85-23.87,14.17-38.34,14-45.5-.15-5.67-3-8.21-7.46-8.95L469.12,183v-2.09h33.57V183l-1.65.9c-5.22,2.53-10.14,15.07-36.25,71.76h-1.94c-3.43-8.65-10.89-26-16.41-37.6C445.69,216.6,445.09,215.11,444.35,213.62Zm-2.09-27.9c0,2.53,3,7.75,6.56,14.17,2.24-5.37,4.33-10,4.33-13.28,0-2.68-1.64-3.88-5.37-3.88C444.2,182.73,442.26,183.93,442.26,185.72Z"/><path class="cls-1" d="M543,237.49l-.89-.15c-3.58,8.8-13.43,16.56-23.73,16.56-12.83,0-20-8.06-20-16.71,0-8.5,13.73-14.47,44.46-20.89v-2.53c0-24-2.38-29.25-13.57-29.25-9.4,0-14,4.33-14,13.43,0,3.13.45,8.36.9,12.53l-14.92,2.24c-.9-22.23,19.69-33.27,35.36-33.27,14,0,21.33,6.12,21.33,19.69-.15,5.23-.45,14.33-.45,20.74,0,20.29.75,23.28,4.18,23.28,3.73,0,5.52-3.88,6.87-20.74l1.79.15c-1.5,21.78-6.12,30.73-14.92,30.73C546.85,253.3,543.27,247.34,543,237.49Zm-.89-4c.59-3.13.74-5.67.74-13.58-9.84,1.35-18.65,3-25.21,5.08-3.58,1-5.37,2.53-5.37,6,0,7.17,5.22,11.49,15.66,11.49C534,242.41,541.18,239.58,542.08,233.46Z"/><path class="cls-1" d="M566.54,277.77c.6-6.11,1.05-11.48,1.5-17a50.48,50.48,0,0,0,17,3.29c8.05,0,15.51-2.54,20.59-10.6-4.33-9.1-11-22.23-17.31-34.31-15.07-28.95-16.41-32.53-20-34.62L566.1,183v-2.09h37.75V183l-7.32.75c-3.87.44-5.52,1.34-5.52,3.58,0,3,4.33,12.38,9.7,23.42,4.18,8.51,9.1,18.06,12.83,25.07,10-22.68,14.18-34.47,14.18-39.84,0-7-2.69-11.19-8.36-12.08l-7.61-.9v-2.09h34.92V183l-2.09,1.05c-4.93,3-10.3,13.57-36.86,69.52-8.35,17.61-17.3,25.07-29.39,25.07A64,64,0,0,1,566.54,277.77Z"/><path class="cls-1" d="M99,136.19H85.5v-.69l2.24-.41c2.44-.49,2.48-.77,2.48-10.5,0-7.69-.08-10.58-.33-12-4.76.33-5.25,1.14-6.43,4.56l-2,6.23h-.61c.53-4,.94-8.14,1.14-11.56h20.59c.16,3.42.53,7.57,1,11.56H103L101,117.14c-1.09-3.42-1.46-4.15-6.47-4.6-.24,1.51-.32,4.07-.32,10.59,0,11.43.12,11.51,2.6,12l2.16.37Z"/><path class="cls-1" d="M134.33,123.7c-2-.09-4-.09-6-.09s-4.11,0-6.15.09c0,10.9.12,11.1,1.83,11.43l2.08.37v.69H114.23v-.69l2.11-.41c1.75-.33,1.75-.73,1.75-10.42,0-11.39-.08-11.6-1.75-11.88l-2.15-.33v-.69H126v.69l-2.4.37c-1.35.24-1.47.73-1.47,10,2,.08,4,.08,6.15.08s4.07,0,6-.08c0-9.64-.16-9.81-1.75-10.09l-2.16-.33v-.69h11.85v.69l-2.4.37c-1.35.24-1.47.73-1.47,10.3,0,11.47.08,11.67,1.83,12l2.08.37v.69H130.46v-.69l2.12-.41c1.75-.33,1.75-.73,1.75-10.42Z"/><path class="cls-1" d="M172.54,136.19H152.72v-.69l2.24-.41c1.5-.33,1.54-.69,1.54-10.58,0-11.31-.12-11.44-1.83-11.72l-2.07-.33v-.69h19.65c.13,2.69.37,6.07.74,9.28h-.65l-1.27-3.87c-1.38-3.54-2.52-4.31-10.25-4.68-.2,1-.29,3-.29,11,5.09-.08,5.78-.69,6.31-3l.45-2.6h.45c0,2.88.36,9.15.69,12H168l-.73-2.56c-.77-2.57-1.67-3-6.72-3.18,0,8.14.13,10.26.29,11.32,7.81-.33,9.24-1,10.5-4.56l1.34-4.32h.61C173,129.88,172.66,133.38,172.54,136.19Z"/><line class="cls-2" x1="698.24" y1="297.75" x2="708.24" y2="302.33"/><line class="cls-2" x1="633.37" y1="270.41" x2="643.35" y2="275.01"/><line class="cls-2" x1="682.21" y1="259.1" x2="686.79" y2="249.1"/><line class="cls-2" x1="654.87" y1="323.98" x2="659.47" y2="314"/><path class="cls-3" d="M653.67,286.55H47.19V129.48A79.82,79.82,0,0,1,127,49.66h0a79.82,79.82,0,0,1,79.82,79.82v6.91"/></svg>