<svg width="200" height="1461" viewBox="0 0 200 1461" fill="none" xmlns="http://www.w3.org/2000/svg">
<path d="M121 975V63.3827C121 43.6282 109 1 61 1C13 1 1 42.3285 1 63.3827L1 108" stroke="white" stroke-width="2"/>
<path d="M78 106.5C77.6486 106.5 77.2905 106.503 76.928 106.507C61.2968 106.719 64.9326 111.627 69.0979 115.492C69.9562 116.198 70.8923 117.03 71.913 118C71.1138 117.275 70.0908 116.413 69.0979 115.492C58.0139 106.374 59.8961 118.205 59.7391 123C59.7391 108.328 56.1016 110.73 52.7316 114.443C52.0253 115.379 51.1175 116.427 49.9799 117.6C49.6639 117.946 49.3646 118.252 49.087 118.5C49.3991 118.192 49.6966 117.892 49.9799 117.6C50.8128 116.69 51.7611 115.512 52.7316 114.443C57.6665 107.902 52.7657 106.826 47.6918 106.819C46.3537 106.937 44.7984 107 43 107C44.3577 106.928 46.034 106.816 47.6918 106.819C57.3798 105.964 55.6799 102.24 52.4287 98.9272C51.3171 98.0692 50.0419 96.9413 48.5797 95.5C49.725 96.4617 51.1895 97.6646 52.4287 98.9272C59.6873 104.53 59.9721 98.6269 59.8275 93.3606C59.7695 92.3535 59.7391 91.2363 59.7391 90C59.7391 90.991 59.7945 92.1592 59.8275 93.3606C60.4884 104.842 64.7379 102.012 68.4926 98.1689C69.391 97.0893 70.521 95.8721 71.913 94.5C70.9262 95.5117 69.7366 96.8958 68.4926 98.1689C60.935 107.251 69.7719 106.592 76.928 106.507C77.2758 106.502 77.633 106.5 78 106.5Z" fill="#D6B482" stroke="white" stroke-width="2"/>
<path d="M200 1443.5C199.649 1443.5 199.29 1443.5 198.928 1443.51C183.297 1443.72 186.933 1448.63 191.098 1452.49C191.956 1453.2 192.892 1454.03 193.913 1455C193.114 1454.28 192.091 1453.41 191.098 1452.49C180.014 1443.37 181.896 1455.2 181.739 1460C181.739 1445.33 178.102 1447.73 174.732 1451.44C174.025 1452.38 173.118 1453.43 171.98 1454.6C171.664 1454.95 171.365 1455.25 171.087 1455.5C171.399 1455.19 171.697 1454.89 171.98 1454.6C172.813 1453.69 173.761 1452.51 174.732 1451.44C179.666 1444.9 174.766 1443.83 169.692 1443.82C168.354 1443.94 166.798 1444 165 1444C166.358 1443.93 168.034 1443.82 169.692 1443.82C179.38 1442.96 177.68 1439.24 174.429 1435.93C173.317 1435.07 172.042 1433.94 170.58 1432.5C171.725 1433.46 173.19 1434.66 174.429 1435.93C181.687 1441.53 181.972 1435.63 181.827 1430.36C181.769 1429.35 181.739 1428.24 181.739 1427C181.739 1427.99 181.794 1429.16 181.827 1430.36C182.488 1441.84 186.738 1439.01 190.493 1435.17C191.391 1434.09 192.521 1432.87 193.913 1431.5C192.926 1432.51 191.737 1433.9 190.493 1435.17C182.935 1444.25 191.772 1443.59 198.928 1443.51C199.276 1443.5 199.633 1443.5 200 1443.5Z" fill="#D6B482" stroke="white" stroke-width="2"/>
<path d="M72 106H182V1434" stroke="white" stroke-width="2"/>
</svg>
