<svg width="125" height="1517" viewBox="0 0 125 1517" fill="none" xmlns="http://www.w3.org/2000/svg">
<path d="M56 463L56 1480.65C56 1491.84 62.8 1516 90 1516C117.2 1516 124 1492.58 124 1480.65L124 1456.21" stroke="white" stroke-width="2"/>
<path d="M72 1460.5C72.3514 1460.5 72.7095 1460.5 73.072 1460.49C88.7032 1460.28 85.0674 1455.37 80.9021 1451.51C80.0438 1450.8 79.1077 1449.97 78.087 1449C78.8862 1449.72 79.9092 1450.59 80.9021 1451.51C91.9861 1460.63 90.1039 1448.8 90.2609 1444C90.2609 1458.67 93.8984 1456.27 97.2684 1452.56C97.9747 1451.62 98.8825 1450.57 100.02 1449.4C100.336 1449.05 100.635 1448.75 100.913 1448.5C100.601 1448.81 100.303 1449.11 100.02 1449.4C99.1872 1450.31 98.2389 1451.49 97.2684 1452.56C92.3335 1459.1 97.2343 1460.17 102.308 1460.18C103.646 1460.06 105.202 1460 107 1460C105.642 1460.07 103.966 1460.18 102.308 1460.18C92.6202 1461.04 94.3201 1464.76 97.5713 1468.07C98.6829 1468.93 99.9581 1470.06 101.42 1471.5C100.275 1470.54 98.8105 1469.34 97.5713 1468.07C90.3127 1462.47 90.0279 1468.37 90.1725 1473.64C90.2305 1474.65 90.2609 1475.76 90.2609 1477C90.2609 1476.01 90.2055 1474.84 90.1725 1473.64C89.5116 1462.16 85.2621 1464.99 81.5074 1468.83C80.609 1469.91 79.479 1471.13 78.087 1472.5C79.0738 1471.49 80.2634 1470.1 81.5074 1468.83C89.065 1459.75 80.2281 1460.41 73.072 1460.49C72.7242 1460.5 72.367 1460.5 72 1460.5Z" fill="#D6B482" stroke="white" stroke-width="2"/>
<path d="M2.16371e-06 17.5C0.351445 17.5 0.709547 17.4972 1.07196 17.4929C16.7032 17.2811 13.0674 12.3726 8.90205 8.50791C8.04376 7.80188 7.10772 6.97024 6.08696 6C6.88624 6.72483 7.90919 7.58671 8.90205 8.50791C19.9861 17.6257 18.1039 5.79534 18.2609 1C18.2609 15.6718 21.8984 13.2695 25.2684 9.55678C25.9747 8.62062 26.8825 7.57251 28.0201 6.39958C28.3361 6.05432 28.6354 5.74761 28.913 5.5C28.6009 5.80773 28.3034 6.10753 28.0201 6.39958C27.1872 7.30966 26.2389 8.48756 25.2684 9.55678C20.3335 16.0976 25.2343 17.1738 30.3082 17.1815C31.6463 17.0634 33.2016 17 35 17C33.6423 17.0723 31.966 17.1839 30.3082 17.1815C20.6202 18.0364 22.3201 21.76 25.5713 25.0728C26.6829 25.9308 27.9581 27.0587 29.4203 28.5C28.275 27.5383 26.8105 26.3354 25.5713 25.0728C18.3127 19.47 18.0279 25.3731 18.1725 30.6394C18.2305 31.6465 18.2609 32.7637 18.2609 34C18.2609 33.0091 18.2055 31.8408 18.1725 30.6394C17.5116 19.158 13.2621 21.9885 9.50735 25.8311C8.60899 26.9107 7.47898 28.1279 6.08696 29.5C7.07382 28.4883 8.26344 27.1042 9.50735 25.8311C17.065 16.7494 8.22814 17.4083 1.07196 17.4929C0.724243 17.4976 0.366992 17.5 2.16371e-06 17.5Z" fill="#D6B482" stroke="white" stroke-width="2"/>
<path d="M78 1461L17.9999 1461L17.9999 29.5" stroke="white" stroke-width="2"/>
</svg>
