<svg width="227" height="37" viewBox="0 0 227 37" fill="none" xmlns="http://www.w3.org/2000/svg">
<path fill-rule="evenodd" clip-rule="evenodd" d="M208.5 0C208.5 0.361327 208.503 0.729496 208.508 1.1021C208.503 0.744599 208.5 0.377304 208.5 0ZM218.037 9.15639C213.938 13.4408 208.732 17.1805 208.508 1.1021C208.512 1.50415 208.519 1.91137 208.526 2.32072C208.643 9.40553 208.77 17.1281 199.664 9.779C198.946 9.09846 198.194 8.43373 197.487 7.80777C196.864 7.25688 196.275 6.73603 195.773 6.26087C197.228 7.69267 198.519 8.85497 199.664 9.779C202.957 12.8994 205.549 16.352 200 17.9215V17H1V20H200V18.9599C203 19.5756 204.386 21.3801 200.468 26.3019C199.257 27.4553 198.097 28.7984 197.131 29.9163C197.03 30.0338 196.93 30.1488 196.833 30.2609C198.362 28.7569 199.558 27.4453 200.468 26.3019C203.982 22.9578 207.931 21.2094 208.838 31.1742C208.836 32.607 208.919 34.0533 208.991 35.3073C209.005 35.5456 209.018 35.777 209.03 36C209.03 34.1502 208.963 32.5505 208.838 31.1742C208.846 25.9553 209.987 20.9144 216.925 25.9903C217.496 26.4935 218.097 26.9908 218.676 27.47C219.246 27.9416 219.794 28.3958 220.273 28.8207C220.583 29.112 220.901 29.418 221.227 29.7391C220.965 29.4536 220.639 29.1457 220.273 28.8207C219.029 27.6506 217.918 26.7168 216.925 25.9903C212.987 22.5241 210.439 18.7826 226 18.7826C225.331 18.7614 224.533 18.7764 223.673 18.7927C217.997 18.8997 209.639 19.0575 218.037 9.15639ZM218.037 9.15639C218.615 8.55181 219.172 7.93639 219.689 7.36427C220.045 6.96999 220.383 6.59628 220.697 6.26087C219.668 7.31079 218.786 8.27358 218.037 9.15639Z" fill="white"/>
<path d="M208.526 2.32072L209.526 2.30422L209.526 2.30421L208.526 2.32072ZM197.487 7.80777L196.824 8.55679L196.824 8.55679L197.487 7.80777ZM195.773 6.26087L196.46 5.53443L195.071 6.97371L195.773 6.26087ZM200 17.9215H199V19.2436L200.272 18.8838L200 17.9215ZM200 17H201V16H200V17ZM1 17V16H0V17H1ZM1 20H0V21H1V20ZM200 20V21H201V20H200ZM200 18.9599L200.201 17.9803L199 17.7338V18.9599H200ZM197.131 29.9163L196.374 29.2627L196.374 29.2627L197.131 29.9163ZM196.833 30.2609L196.077 29.6063L197.535 30.9737L196.833 30.2609ZM208.991 35.3073L207.993 35.3648L207.993 35.3648L208.991 35.3073ZM209.03 36L208.032 36.0549L210.03 36H209.03ZM218.676 27.47L219.314 26.6997L219.314 26.6997L218.676 27.47ZM221.227 29.7391L220.526 30.452L221.963 29.0622L221.227 29.7391ZM226 18.7826V19.7826L226.032 17.7831L226 18.7826ZM223.673 18.7927L223.692 19.7925L223.692 19.7925L223.673 18.7927ZM219.689 7.36427L220.431 8.03489L220.431 8.03488L219.689 7.36427ZM220.697 6.26087L221.427 6.94388L219.983 5.5609L220.697 6.26087ZM207.5 0C207.5 0.366661 207.503 0.739134 207.508 1.1143L209.507 1.08989C209.503 0.719858 209.5 0.355992 209.5 0H207.5ZM209.507 1.08814C209.503 0.735473 209.5 0.372833 209.5 0H207.5C207.5 0.381774 207.503 0.753725 207.508 1.11605L209.507 1.08814ZM207.508 1.11606C207.564 5.17124 207.934 8.06642 208.561 10.048C209.181 12.0046 210.136 13.3143 211.538 13.725C212.898 14.1232 214.269 13.5453 215.4 12.8021C216.566 12.0357 217.723 10.9308 218.76 9.84769L217.314 8.4651C216.301 9.52423 215.271 10.4934 214.301 11.1307C213.296 11.7912 212.582 11.9467 212.1 11.8056C211.661 11.6769 211.016 11.1746 210.468 9.44429C209.928 7.73889 209.563 5.07214 209.507 1.08813L207.508 1.11606ZM209.526 2.30421C209.519 1.8945 209.512 1.48945 209.507 1.08991L207.508 1.11428C207.513 1.51886 207.519 1.92824 207.526 2.33723L209.526 2.30421ZM199.036 10.5572C201.341 12.4177 203.213 13.4568 204.752 13.6982C205.55 13.8235 206.293 13.7395 206.949 13.4107C207.6 13.0841 208.075 12.5609 208.42 11.9613C209.087 10.803 209.353 9.20657 209.469 7.57921C209.586 5.92178 209.555 4.06453 209.526 2.30422L207.526 2.33722C207.555 4.11931 207.584 5.88419 207.474 7.43767C207.361 9.02124 207.112 10.2245 206.687 10.9639C206.486 11.313 206.271 11.5131 206.052 11.6229C205.838 11.7304 205.531 11.796 205.062 11.7224C204.067 11.5663 202.54 10.8148 200.292 9.00081L199.036 10.5572ZM196.824 8.55679C197.534 9.18459 198.272 9.83807 198.976 10.5049L200.352 9.05314C199.619 8.35885 198.855 7.68286 198.149 7.05874L196.824 8.55679ZM195.085 6.98731C195.602 7.47627 196.205 8.00895 196.824 8.55679L198.149 7.05875C197.523 6.50481 196.948 5.99578 196.46 5.53443L195.085 6.98731ZM200.292 9.00081C199.179 8.10239 197.913 6.96327 196.474 5.54803L195.071 6.97371C196.544 8.42206 197.859 9.60755 199.036 10.5572L200.292 9.00081ZM200.272 18.8838C201.743 18.4678 202.851 17.8826 203.525 17.0596C204.247 16.1788 204.363 15.1617 204.117 14.187C203.884 13.2625 203.325 12.3586 202.672 11.5286C202.009 10.6862 201.19 9.84716 200.352 9.05313L198.976 10.5049C199.785 11.2711 200.524 12.0337 201.1 12.7654C201.686 13.5094 202.046 14.1519 202.178 14.6767C202.298 15.1514 202.228 15.4868 201.978 15.7923C201.68 16.1556 201.032 16.5905 199.728 16.9593L200.272 18.8838ZM199 17V17.9215H201V17H199ZM1 18H200V16H1V18ZM2 20V17H0V20H2ZM200 19H1V21H200V19ZM199 18.9599V20H201V18.9599H199ZM201.251 26.9247C202.261 25.6555 202.966 24.542 203.388 23.5596C203.809 22.5807 203.979 21.6588 203.808 20.8175C203.445 19.0272 201.754 18.2991 200.201 17.9803L199.799 19.9395C201.246 20.2365 201.747 20.7184 201.848 21.2148C201.909 21.5168 201.878 22.0073 201.551 22.7703C201.225 23.5297 200.634 24.4874 199.686 25.6792L201.251 26.9247ZM197.888 30.5699C198.859 29.4457 199.987 28.1402 201.158 27.0263L199.779 25.5776C198.526 26.7703 197.334 28.151 196.374 29.2627L197.888 30.5699ZM197.589 30.9155C197.687 30.8028 197.787 30.6873 197.888 30.5699L196.374 29.2627C196.273 29.3803 196.174 29.4948 196.077 29.6063L197.589 30.9155ZM199.686 25.6792C198.808 26.7822 197.641 28.0633 196.132 29.548L197.535 30.9737C199.083 29.4505 200.309 28.1084 201.251 26.9247L199.686 25.6792ZM209.834 31.0836C209.603 28.5424 209.171 26.6521 208.548 25.3161C207.919 23.9681 207.037 23.0722 205.876 22.7779C204.754 22.4933 203.63 22.8407 202.652 23.3729C201.663 23.912 200.684 24.7161 199.779 25.5776L201.158 27.0263C202.009 26.2156 202.842 25.5472 203.609 25.1293C204.389 24.7046 204.967 24.6106 205.385 24.7165C205.764 24.8127 206.259 25.1391 206.735 26.1614C207.218 27.1956 207.62 28.8236 207.842 31.2648L209.834 31.0836ZM209.989 35.2499C209.917 33.9917 209.836 32.5744 209.838 31.1757L207.838 31.1726C207.836 32.6397 207.921 34.1149 207.993 35.3648L209.989 35.2499ZM210.029 35.9451C210.016 35.7206 210.003 35.4879 209.989 35.2499L207.993 35.3648C208.006 35.6034 208.02 35.8334 208.032 36.0549L210.029 35.9451ZM207.842 31.2648C207.964 32.6047 208.03 34.1734 208.03 36H210.03C210.03 34.127 209.962 32.4962 209.834 31.0836L207.842 31.2648ZM217.515 25.1833C215.729 23.8761 214.2 23.1302 212.881 22.9357C211.49 22.7305 210.356 23.1484 209.54 24.0517C208.783 24.8911 208.377 26.0648 208.147 27.26C207.914 28.4757 207.84 29.84 207.838 31.1726L209.838 31.1757C209.84 29.8989 209.912 28.6761 210.111 27.6374C210.315 26.5783 210.629 25.8305 211.025 25.3917C211.363 25.017 211.816 24.8002 212.59 24.9143C213.437 25.0392 214.652 25.5666 216.334 26.7974L217.515 25.1833ZM219.314 26.6997C218.733 26.2187 218.144 25.7311 217.585 25.2397L216.264 26.741C216.849 27.2558 217.461 27.7628 218.038 28.2403L219.314 26.6997ZM220.937 28.0727C220.443 27.6342 219.88 27.1685 219.314 26.6997L218.038 28.2403C218.612 28.7148 219.146 29.1573 219.609 29.5686L220.937 28.0727ZM221.929 29.0263C221.597 28.7002 221.274 28.389 220.958 28.0922L219.588 29.5491C219.892 29.835 220.205 30.1358 220.526 30.452L221.929 29.0263ZM219.609 29.5686C219.964 29.8834 220.261 30.166 220.491 30.416L221.963 29.0622C221.668 28.7411 221.315 28.4079 220.937 28.0727L219.609 29.5686ZM216.334 26.7974C217.286 27.4939 218.366 28.3996 219.588 29.5491L220.958 28.0922C219.692 26.9015 218.549 25.9397 217.515 25.1833L216.334 26.7974ZM226 17.7826C222.083 17.7826 219.243 18.017 217.254 18.4436C215.333 18.8555 213.931 19.5014 213.291 20.5745C212.58 21.7672 213.044 23.0153 213.657 23.95C214.285 24.9089 215.272 25.8674 216.264 26.741L217.585 25.2397C216.609 24.3801 215.8 23.5711 215.329 22.8536C214.843 22.1119 214.904 21.7747 215.009 21.5987C215.185 21.3032 215.818 20.7971 217.673 20.3991C219.46 20.0159 222.137 19.7826 226 19.7826V17.7826ZM223.692 19.7925C224.56 19.7761 225.33 19.7618 225.968 19.7821L226.032 17.7831C225.332 17.7609 224.506 17.7768 223.654 17.7928L223.692 19.7925ZM217.274 8.50953C215.149 11.015 213.964 13.0146 213.601 14.6352C213.414 15.4673 213.434 16.2438 213.698 16.9398C213.964 17.6397 214.443 18.1671 215.017 18.5556C216.116 19.3003 217.652 19.5935 219.131 19.7208C220.643 19.851 222.284 19.819 223.692 19.7925L223.654 17.7928C222.225 17.8198 220.692 17.8478 219.303 17.7282C217.881 17.6058 216.788 17.3397 216.138 16.8996C215.837 16.6957 215.661 16.4743 215.568 16.2295C215.474 15.9808 215.43 15.6169 215.552 15.0731C215.806 13.9419 216.726 12.2483 218.8 9.80325L217.274 8.50953ZM218.947 6.69366C218.429 7.26726 217.882 7.87233 217.314 8.46509L218.76 9.84769C219.349 9.23129 219.915 8.60551 220.431 8.03489L218.947 6.69366ZM219.967 5.57786C219.646 5.92061 219.302 6.30093 218.947 6.69367L220.431 8.03488C220.789 7.63905 221.121 7.27196 221.427 6.94388L219.967 5.57786ZM218.8 9.80325C219.53 8.94189 220.396 7.9969 221.411 6.96084L219.983 5.5609C218.94 6.62468 218.041 7.60527 217.274 8.50953L218.8 9.80325Z" fill="white" fill-opacity="0.8"/>
</svg>
