<svg xmlns="http://www.w3.org/2000/svg" viewBox="0 0 40.67 292.2"><defs><style>.cls-1{fill:#fff;}.cls-1,.cls-2{stroke:#fff;stroke-miterlimit:10;stroke-width:2px;}.cls-2{fill:none;}</style></defs><g id="long_unfilled_spark_arrow" data-name="long unfilled spark arrow"><g id="Layer_2" data-name="Layer 2"><path class="cls-1" d="M20.62,241.42s0,12.59-8.9,3.69c0,0,8.9,8.9-3.69,8.9,0,0,12.59,0,3.69,8.91,0,0,8.9-8.91,8.9,3.69,0,0,0-12.6,8.91-3.69,0,0-8.91-8.91,3.69-8.91,0,0-12.6,0-3.69-8.9C29.53,245.11,20.62,254,20.62,241.42Z"/><line class="cls-2" x1="20.62" y1="241.42" x2="20.62" y2="235.41"/><polyline class="cls-1" points="20.62 266.61 20.62 266.61 20.62 272.62"/><line class="cls-2" x1="33.22" y1="254.01" x2="39.23" y2="254.01"/><line class="cls-2" x1="29.53" y1="245.11" x2="33.78" y2="240.86"/><line class="cls-2" x1="29.53" y1="262.92" x2="33.78" y2="267.17"/><line class="cls-2" x1="11.72" y1="262.92" x2="7.47" y2="267.17"/><line class="cls-2" x1="8.03" y1="254.01" x2="2.02" y2="254.01"/><line class="cls-2" x1="11.72" y1="245.11" x2="7.47" y2="240.86"/></g><g id="Layer_3" data-name="Layer 3"><line class="cls-2" x1="20.62" y1="241.42" x2="20.62" y2="4.41"/></g></g></svg>

