<?xml version="1.0" encoding="utf-8"?>
<!-- Generator: Adobe Illustrator 24.3.0, SVG Export Plug-In . SVG Version: 6.00 Build 0)  -->
<svg version="1.1" id="Layer_1" xmlns="http://www.w3.org/2000/svg" xmlns:xlink="http://www.w3.org/1999/xlink" x="0px" y="0px"
	 viewBox="0 0 231 37" style="enable-background:new 0 0 231 37;" xml:space="preserve">
<style type="text/css">
	.st0{fill:#FFFFFF;stroke:#FFFFFF;stroke-width:2;stroke-miterlimit:10;}
	.st1{fill:none;stroke:#FFFFFF;stroke-width:2;stroke-miterlimit:10;}
	.st2{fill:none;stroke:#FFFFFF;stroke-width:3;stroke-miterlimit:10;}
</style>
<g id="Layer_2_1_">
	<path class="st0" d="M199.8,18.5c0,0,12.6,0,3.7,8.9c0,0,8.9-8.9,8.9,3.7c0,0,0-12.6,8.9-3.7c0,0-8.9-8.9,3.7-8.9
		c0,0-12.6,0-3.7-8.9c0,0-8.9,8.9-8.9-3.7c0,0,0,12.6-8.9,3.7C203.5,9.6,212.4,18.5,199.8,18.5z"/>
	<line class="st1" x1="199.8" y1="18.5" x2="193.8" y2="18.5"/>
	<polyline class="st0" points="225,18.5 225,18.5 231,18.5 	"/>
	<line class="st1" x1="212.4" y1="5.9" x2="212.4" y2="-0.1"/>
	<line class="st1" x1="203.5" y1="9.6" x2="199.2" y2="5.3"/>
	<line class="st1" x1="221.3" y1="9.6" x2="225.6" y2="5.3"/>
	<line class="st1" x1="221.3" y1="27.4" x2="225.6" y2="31.7"/>
	<line class="st1" x1="212.4" y1="31.1" x2="212.4" y2="37.1"/>
	<line class="st1" x1="203.5" y1="27.4" x2="199.2" y2="31.7"/>
</g>
<g id="Layer_3">
	<line class="st2" x1="205.1" y1="18.5" x2="0" y2="18.5"/>
</g>
</svg>
