<svg width="125" height="1411" viewBox="0 0 125 1411" fill="none" xmlns="http://www.w3.org/2000/svg">
<path d="M69 945.5L69 36.3545C69 25.1589 62.2 1 35 1C7.8 1 1 24.4223 1 36.3545L1 60.7906" stroke="white" stroke-width="2"/>
<path d="M53 56.5C52.6486 56.5 52.2905 56.5028 51.928 56.5071C36.2968 56.7189 39.9326 61.6274 44.0979 65.4921C44.9562 66.1981 45.8923 67.0298 46.913 68C46.1138 67.2752 45.0908 66.4133 44.0979 65.4921C33.0139 56.3743 34.8961 68.2047 34.7391 73C34.7391 58.3282 31.1016 60.7305 27.7316 64.4432C27.0253 65.3794 26.1175 66.4275 24.9799 67.6004C24.6639 67.9457 24.3646 68.2524 24.087 68.5C24.3991 68.1923 24.6966 67.8925 24.9799 67.6004C25.8128 66.6903 26.7611 65.5124 27.7316 64.4432C32.6665 57.9024 27.7657 56.8262 22.6918 56.8186C21.3537 56.9366 19.7984 57 18 57C19.3577 56.9277 21.034 56.8161 22.6918 56.8186C32.3798 55.9636 30.6799 52.24 27.4287 48.9272C26.3171 48.0692 25.0419 46.9413 23.5797 45.5C24.725 46.4617 26.1895 47.6646 27.4287 48.9272C34.6873 54.53 34.9721 48.6269 34.8275 43.3606C34.7695 42.3535 34.7391 41.2363 34.7391 40C34.7391 40.991 34.7945 42.1592 34.8275 43.3606C35.4884 54.842 39.7379 52.0116 43.4926 48.1689C44.391 47.0893 45.521 45.8721 46.913 44.5C45.9262 45.5117 44.7366 46.8958 43.4926 48.1689C35.935 57.2506 44.7719 56.5917 51.928 56.5071C52.2758 56.5024 52.633 56.5 53 56.5Z" fill="#D6B482" stroke="white" stroke-width="2"/>
<path d="M125 1393.5C124.649 1393.5 124.29 1393.5 123.928 1393.51C108.297 1393.72 111.933 1398.63 116.098 1402.49C116.956 1403.2 117.892 1404.03 118.913 1405C118.114 1404.28 117.091 1403.41 116.098 1402.49C105.014 1393.37 106.896 1405.2 106.739 1410C106.739 1395.33 103.102 1397.73 99.7316 1401.44C99.0253 1402.38 98.1175 1403.43 96.9799 1404.6C96.6639 1404.95 96.3646 1405.25 96.087 1405.5C96.3991 1405.19 96.6966 1404.89 96.9799 1404.6C97.8128 1403.69 98.7611 1402.51 99.7316 1401.44C104.666 1394.9 99.7657 1393.83 94.6918 1393.82C93.3537 1393.94 91.7984 1394 90 1394C91.3577 1393.93 93.034 1393.82 94.6918 1393.82C104.38 1392.96 102.68 1389.24 99.4287 1385.93C98.3171 1385.07 97.0419 1383.94 95.5797 1382.5C96.725 1383.46 98.1895 1384.66 99.4287 1385.93C106.687 1391.53 106.972 1385.63 106.827 1380.36C106.769 1379.35 106.739 1378.24 106.739 1377C106.739 1377.99 106.794 1379.16 106.827 1380.36C107.488 1391.84 111.738 1389.01 115.493 1385.17C116.391 1384.09 117.521 1382.87 118.913 1381.5C117.926 1382.51 116.737 1383.9 115.493 1385.17C107.935 1394.25 116.772 1393.59 123.928 1393.51C124.276 1393.5 124.633 1393.5 125 1393.5Z" fill="#D6B482" stroke="white" stroke-width="2"/>
<path d="M47 56L107 56L107 1382" stroke="white" stroke-width="2"/>
</svg>
