<svg xmlns="http://www.w3.org/2000/svg" viewBox="0 0 40.67 235.41"><defs><style>.cls-1{fill:#fff;stroke-width:2px;}.cls-1,.cls-2{stroke:#fff;stroke-miterlimit:10;}.cls-2{fill:none;stroke-width:3px;}</style></defs><g id="Layer_2" data-name="Layer 2"><path class="cls-1" d="M20.62,204.21s0,12.59-8.9,3.69c0,0,8.9,8.9-3.69,8.9,0,0,12.59,0,3.69,8.91,0,0,8.9-8.91,8.9,3.69,0,0,0-12.6,8.91-3.69,0,0-8.91-8.91,3.69-8.91,0,0-12.6,0-3.69-8.9C29.53,207.9,20.62,216.8,20.62,204.21Z"/><line class="cls-1" x1="20.62" y1="204.21" x2="20.62" y2="198.2"/><polyline class="cls-1" points="20.62 229.4 20.62 229.4 20.62 235.41"/><line class="cls-1" x1="33.22" y1="216.8" x2="39.23" y2="216.8"/><line class="cls-1" x1="29.53" y1="207.9" x2="33.78" y2="203.65"/><line class="cls-1" x1="29.53" y1="225.71" x2="33.78" y2="229.96"/><line class="cls-1" x1="11.72" y1="225.71" x2="7.47" y2="229.96"/><line class="cls-1" x1="8.03" y1="216.8" x2="2.02" y2="216.8"/><line class="cls-1" x1="11.72" y1="207.9" x2="7.47" y2="203.65"/></g><g id="Layer_3" data-name="Layer 3"><line class="cls-2" x1="20.62" y1="209.47" x2="20.62" y2="4.41"/></g></svg>