<svg width="200" height="1461" viewBox="0 0 200 1461" fill="none" xmlns="http://www.w3.org/2000/svg">
<path d="M79.0001 486L79 1397.62C79 1417.37 91 1460 139 1460C187 1460 199 1418.67 199 1397.62L199 1354.5" stroke="white" stroke-width="2"/>
<path d="M122 1354.5C122.351 1354.5 122.71 1354.5 123.072 1354.49C138.703 1354.28 135.067 1349.37 130.902 1345.51C130.044 1344.8 129.108 1343.97 128.087 1343C128.886 1343.72 129.909 1344.59 130.902 1345.51C141.986 1354.63 140.104 1342.8 140.261 1338C140.261 1352.67 143.898 1350.27 147.268 1346.56C147.975 1345.62 148.882 1344.57 150.02 1343.4C150.336 1343.05 150.635 1342.75 150.913 1342.5C150.601 1342.81 150.303 1343.11 150.02 1343.4C149.187 1344.31 148.239 1345.49 147.268 1346.56C142.334 1353.1 147.234 1354.17 152.308 1354.18C153.646 1354.06 155.202 1354 157 1354C155.642 1354.07 153.966 1354.18 152.308 1354.18C142.62 1355.04 144.32 1358.76 147.571 1362.07C148.683 1362.93 149.958 1364.06 151.42 1365.5C150.275 1364.54 148.81 1363.34 147.571 1362.07C140.313 1356.47 140.028 1362.37 140.173 1367.64C140.231 1368.65 140.261 1369.76 140.261 1371C140.261 1370.01 140.206 1368.84 140.173 1367.64C139.512 1356.16 135.262 1358.99 131.507 1362.83C130.609 1363.91 129.479 1365.13 128.087 1366.5C129.074 1365.49 130.263 1364.1 131.507 1362.83C139.065 1353.75 130.228 1354.41 123.072 1354.49C122.724 1354.5 122.367 1354.5 122 1354.5Z" fill="#D6B482" stroke="white" stroke-width="2"/>
<path d="M0.000246304 17.5C0.35169 17.5 0.709791 17.4972 1.0722 17.4929C16.7034 17.2811 13.0676 12.3726 8.9023 8.50791C8.044 7.80188 7.10796 6.97024 6.0872 6C6.88648 6.72483 7.90943 7.58671 8.9023 8.50791C19.9864 17.6257 18.1042 5.79534 18.2611 1C18.2611 15.6718 21.8986 13.2695 25.2686 9.55678C25.9749 8.62062 26.8827 7.57251 28.0203 6.39958C28.3363 6.05432 28.6357 5.74761 28.9133 5.5C28.6011 5.80773 28.3036 6.10753 28.0203 6.39958C27.1875 7.30966 26.2391 8.48756 25.2686 9.55678C20.3337 16.0976 25.2346 17.1738 30.3085 17.1815C31.6465 17.0634 33.2018 17 35.0002 17C33.6425 17.0723 31.9663 17.1839 30.3085 17.1815C20.6205 18.0364 22.3203 21.76 25.5716 25.0728C26.6832 25.9308 27.9583 27.0587 29.4205 28.5C28.2753 27.5383 26.8107 26.3354 25.5716 25.0728C18.313 19.47 18.0281 25.3731 18.1728 30.6394C18.2307 31.6465 18.2611 32.7637 18.2611 34C18.2611 33.0091 18.2058 31.8408 18.1728 30.6394C17.5118 19.158 13.2624 21.9885 9.5076 25.8311C8.60923 26.9107 7.47922 28.1279 6.0872 29.5C7.07407 28.4883 8.26369 27.1042 9.5076 25.8311C17.0652 16.7494 8.22838 17.4083 1.0722 17.4929C0.724487 17.4976 0.367236 17.5 0.000246304 17.5Z" fill="#D6B482" stroke="white" stroke-width="2"/>
<path d="M128 1355L17.9999 1355L18 29" stroke="white" stroke-width="2"/>
</svg>
