<?xml version="1.0" encoding="utf-8"?>
<!-- Generator: Adobe Illustrator 24.3.0, SVG Export Plug-In . SVG Version: 6.00 Build 0)  -->
<svg version="1.1" id="Layer_1" xmlns="http://www.w3.org/2000/svg" xmlns:xlink="http://www.w3.org/1999/xlink" x="0px" y="0px"
	 viewBox="0 0 346.2 37.2" style="enable-background:new 0 0 346.2 37.2;" xml:space="preserve">
<style type="text/css">
	.st0{fill:#FFFFFF;stroke:#FFFFFF;stroke-width:2;stroke-miterlimit:10;}
	.st1{fill:none;stroke:#FFFFFF;stroke-width:2;stroke-miterlimit:10;}
	.st2{fill:#D4B482;stroke:#FFFFFF;stroke-width:2;stroke-miterlimit:10;}
	.st3{fill:none;stroke:#FFFFFF;stroke-width:3;stroke-miterlimit:10;}
</style>
<g id="Layer_2_1_">
	<path class="st0" d="M309.8,18.6c0,0,12.6,0,3.7,8.9c0,0,8.9-8.9,8.9,3.7c0,0,0-12.6,8.9-3.7c0,0-8.9-8.9,3.7-8.9
		c0,0-12.6,0-3.7-8.9c0,0-8.9,8.9-8.9-3.7c0,0,0,12.6-8.9,3.7C313.5,9.7,322.4,18.6,309.8,18.6z"/>
	<line class="st1" x1="309.8" y1="18.6" x2="303.8" y2="18.6"/>
	<polyline class="st2" points="335,18.6 335,18.6 341,18.6 	"/>
	<line class="st1" x1="322.4" y1="6" x2="322.4" y2="0"/>
	<line class="st1" x1="313.5" y1="9.7" x2="309.2" y2="5.5"/>
	<line class="st1" x1="331.3" y1="9.7" x2="335.5" y2="5.5"/>
	<line class="st1" x1="331.3" y1="27.5" x2="335.5" y2="31.8"/>
	<line class="st1" x1="322.4" y1="31.2" x2="322.4" y2="37.2"/>
	<line class="st1" x1="313.5" y1="27.5" x2="309.2" y2="31.8"/>
</g>
<g id="Layer_3">
	<line class="st3" x1="315.1" y1="18.6" x2="0" y2="18.6"/>
</g>
</svg>
