<svg xmlns="http://www.w3.org/2000/svg" viewBox="0 0 43.73 346.31"><defs><style>.cls-1{fill:#d4b482;stroke-width:2px;}.cls-1,.cls-2{stroke:#fff;stroke-miterlimit:10;}.cls-2{fill:none;stroke-width:3px;}</style></defs><g id="Layer_2" data-name="Layer 2"><path class="cls-1" d="M21.31,314.21s0,12.59-8.91,3.69c0,0,8.91,8.9-3.68,8.9,0,0,12.59,0,3.68,8.91,0,0,8.91-8.91,8.91,3.69,0,0,0-12.6,8.9-3.69,0,0-8.9-8.91,3.69-8.91,0,0-12.59,0-3.69-8.9C30.21,317.9,21.31,326.8,21.31,314.21Z"/><line class="cls-1" x1="21.31" y1="314.21" x2="21.31" y2="308.2"/><polyline class="cls-1" points="21.31 339.4 21.31 339.4 21.31 345.41"/><line class="cls-1" x1="33.9" y1="326.8" x2="39.91" y2="326.8"/><line class="cls-1" x1="30.21" y1="317.9" x2="34.46" y2="313.65"/><line class="cls-1" x1="30.21" y1="335.71" x2="34.46" y2="339.96"/><line class="cls-1" x1="12.4" y1="335.71" x2="8.15" y2="339.96"/><line class="cls-1" x1="8.72" y1="326.8" x2="2.71" y2="326.8"/><line class="cls-1" x1="12.4" y1="317.9" x2="8.15" y2="313.65"/></g><g id="Layer_3" data-name="Layer 3"><line class="cls-2" x1="21.31" y1="319.47" x2="21.31" y2="4.41"/></g></svg>