<svg width="47" height="46" viewBox="0 0 47 46" fill="none" xmlns="http://www.w3.org/2000/svg">
<circle cx="23" cy="23" r="23" fill="#E9E3DA"/>
<path d="M26.0939 22.9981C25.0826 24.2086 22.3316 25.9034 19.4188 22.9981C16.5061 20.0928 18.2052 16.9455 19.4188 15.735L24.2735 10.8928C25.4872 9.88408 28.5213 8.59285 30.9486 11.4981C33.3759 14.4034 32.3645 16.7439 31.5554 17.5509L28.5213 20.5773" stroke="#AAA378" stroke-width="2"/>
<path d="M20.6334 21.7897C21.8471 20.5792 25.0026 18.8844 27.9154 21.7897C31.3139 24.6949 29.3314 28.2458 27.9154 29.6582L23.0604 34.5003C19.4194 38.1318 17.1946 35.1055 15.7788 33.895C11.4096 30.0213 15.172 26.2283 17.5993 24.816" stroke="#AAA378" stroke-width="2"/>
<path d="M45.1189 23C45.1189 35.1478 35.245 45 23.0595 45C10.8739 45 1 35.1478 1 23C1 10.8522 10.8739 1 23.0595 1C35.245 1 45.1189 10.8522 45.1189 23Z" stroke="#AAA378" stroke-width="2"/>
</svg>
