<svg id="Layer_1" data-name="Layer 1" xmlns="http://www.w3.org/2000/svg" viewBox="0 0 270.18 123.11"><defs><style>.cls-1,.cls-2{fill:#5f321a;}.cls-1,.cls-3,.cls-4{stroke:#5f321a;stroke-miterlimit:10;}.cls-1{stroke-width:0.5px;}.cls-3{fill:#231f20;}.cls-3,.cls-4{stroke-width:1.3px;}.cls-4{fill:none;}</style></defs><g id="new"><path class="cls-1" d="M249.36,103.18l9.28-9.28.28.28-3.28,3.38s-5,4.74,2.12,5.15l4.72.11v.36Z"/><path class="cls-1" d="M249.36,103.18h13.12v.4l-4.7.07s-6.87-.16-2.15,5.14l3.27,3.41-.26.27Z"/><path class="cls-1" d="M249.36,103.18l9.28,9.29-.28.27L255,109.47s-4.74-5-5.15,2.11l-.1,4.73h-.37Z"/><path class="cls-1" d="M249.36,103.18v13.13H249l-.07-4.71s.16-6.86-5.14-2.15l-3.41,3.28-.26-.26Z"/><path class="cls-1" d="M249.36,103.18l-9.28,9.29-.28-.28,3.27-3.39s5-4.74-2.11-5.15l-4.73-.1v-.37Z"/><path class="cls-1" d="M249.36,103.18H236.23v-.39l4.71-.08s6.86.17,2.15-5.13l-3.27-3.42.26-.26Z"/><path class="cls-1" d="M249.36,103.18l-9.28-9.28.28-.28,3.38,3.28s4.74,5,5.15-2.11l.1-4.73h.37Z"/><path class="cls-1" d="M249.36,103.18V90.06h.39l.08,4.7s-.16,6.87,5.13,2.15l3.42-3.27.26.26Z"/></g><path class="cls-2" d="M33.17,90.09H19.33l.17-1,.87-.29c2.15-.82,4.48-5,23.67-34.49h1.05c.58,3.6,2.1,11.11,3.32,17,2.21,11.4,2.9,16.4,4.71,17.51l.64.29-.24,1H38.75l.18-1L42,88.81c2-.23,2.79-1,2.79-2.15a99.56,99.56,0,0,0-1.34-10.42c-3.78,0-7.62.06-11.57.3-2.56,4.94-4.19,8.78-4.19,10.35,0,1,.7,1.51,2.15,1.74l3.49.47ZM40.5,61.41c-3,5-5.76,9.72-7.91,13.79,3.54.17,7.15.17,10.7.17-.06-.4-.12-.81-.18-1.16C42.3,69.73,41.19,64.44,40.5,61.41Z"/><path class="cls-2" d="M63.06,54.49c-.87,0-2.38,1.63-4.13,4.48l-.52-.64C61,53.79,63.94,50.54,67,50.54c1.69,0,2.85,1.22,2.85,3.89,0,6.52-6.81,25-6.81,30.19,0,.93.3,1.45.88,1.45,1,0,2.44-1.51,4.24-4.53l.53.64c-2.62,4.65-5.59,8.49-8.73,8.49-1.8,0-3.08-1.28-3.08-3.9,0-5.76,7-24.72,7-30.82C63.94,55,63.59,54.49,63.06,54.49Z"/><path class="cls-2" d="M77,54.49c-.87,0-2.38,1.63-4.13,4.48l-.52-.64c2.62-4.54,5.53-7.79,8.61-7.79,1.69,0,2.85,1.22,2.85,3.89,0,6.52-6.81,25-6.81,30.19,0,.93.3,1.45.88,1.45,1,0,2.44-1.51,4.24-4.53l.53.64C80,86.83,77,90.67,73.88,90.67c-1.8,0-3.08-1.28-3.08-3.9,0-5.76,7-24.72,7-30.82C77.84,55,77.49,54.49,77,54.49Z"/><path class="cls-2" d="M91.68,74.09A23.65,23.65,0,0,0,91.16,79c0,5.06,2.44,7.38,5.29,7.38,3.14,0,6.16-2.67,8.67-7.15l.75.47c-2.79,6.16-7.09,11-12.56,11C88.89,90.67,85,87,85,80.9c0-9.42,6.34-19.43,17.39-19.43,3.49,0,5.47,1.8,5.47,4.13C107.85,69.26,102.15,72.58,91.68,74.09Zm.12-.52c7.38-2,11.28-5.29,11.28-7.85a2.92,2.92,0,0,0-3-3C96.39,62.69,93.13,67.81,91.8,73.57Z"/><path class="cls-2" d="M115.64,84.27a1.29,1.29,0,0,0,1.4,1.4c2.85,0,7.56-3.61,14.13-23.68h6.34c-1.92,6.29-4.65,15.59-5.76,21.29-1.92,9.08-9.83,17.1-18.72,17.1-4.54,0-7.33-1.74-6.11-6a56.33,56.33,0,0,0,11.57,1.75c5.06.06,6.52-1,7.45-6.75.4-3,.58-6.34,1-9.19a112.15,112.15,0,0,1,2.8-11.75l-.35-.11c-6.17,16.34-10.82,21.81-15.59,21.81-2.91,0-4.19-1.86-4.19-4.25,0-4.59,5.12-14.83,5.12-18.55,0-.82-.35-1.28-.93-1.28-.93,0-2.39,1.51-4.19,4.53l-.58-.69c2.62-4.6,5.58-8.44,8.72-8.44,1.81,0,3,1.34,3,4.13C120.82,69.9,115.64,80.37,115.64,84.27Z"/><path class="cls-2" d="M161.07,74.75c-2.21,5.12-4.36,10.41-7.1,16.46h-.81c-1.4-3.43-4.25-9.71-6.46-14.25-4.94-10.47-5.7-12.79-7.56-13.72l-.7-.41V62h13.67v.81l-2.15.23c-1.92.24-2.73.88-2.73,2,0,1.45,2,5.35,4.18,9.77,1.4,2.91,3.43,7.15,4.66,9.42,1.74-3.84,3.25-7.15,4.65-10.23-3.84-8.26-4.65-10.24-6.17-10.94l-.69-.29V62h15.06v.81l-1,.35c-1.22.35-2.38,2.27-4.65,6.92.52.93,1.05,1.92,1.57,2.91,1.92,3.55,4.77,8.78,6.4,11.46,3.84-9.31,5.52-15,5.47-17.74a3.2,3.2,0,0,0-2.91-3.49l-3-.41V62h13.09v.81l-.64.35c-2,1-4,5.87-14.13,28h-.76C166.94,87.78,164,81,161.88,76.5,161.59,75.92,161.36,75.34,161.07,74.75Zm-.82-10.87c0,1,1.17,3,2.56,5.52.88-2.09,1.69-3.89,1.69-5.17,0-1.05-.64-1.52-2.09-1.52S160.25,63.18,160.25,63.88Z"/><path class="cls-2" d="M199.51,84.06l-.34-.06a10.66,10.66,0,0,1-9.25,6.46c-5,0-7.8-3.14-7.8-6.52s5.35-5.64,17.34-8.14v-1c0-9.36-.93-11.4-5.3-11.4-3.66,0-5.46,1.69-5.46,5.24,0,1.22.17,3.25.35,4.88l-5.82.87c-.35-8.66,7.68-13,13.78-13,5.47,0,8.32,2.39,8.32,7.68-.06,2-.17,5.59-.17,8.09,0,7.91.29,9.07,1.63,9.07s2.15-1.51,2.67-8.09l.7.06c-.58,8.5-2.39,12-5.82,12S199.63,87.9,199.51,84.06Zm-.34-1.57a26.37,26.37,0,0,0,.29-5.29,62.12,62.12,0,0,0-9.83,2c-1.4.41-2.1,1-2.1,2.33,0,2.79,2,4.48,6.11,4.48C196,86,198.82,84.87,199.17,82.49Z"/><path class="cls-2" d="M208.7,99.76c.24-2.38.41-4.47.59-6.63a19.46,19.46,0,0,0,6.63,1.28c3.14,0,6.05-1,8-4.13-1.68-3.54-4.3-8.66-6.74-13.37-5.88-11.29-6.4-12.68-7.8-13.5l-.87-.58V62h14.72v.81l-2.85.29c-1.52.18-2.16.52-2.16,1.4,0,1.16,1.69,4.82,3.78,9.13,1.63,3.31,3.55,7,5,9.77,3.89-8.84,5.52-13.44,5.52-15.53,0-2.73-1.05-4.36-3.26-4.71l-3-.35V62h13.61v.81l-.82.41c-1.92,1.16-4,5.29-14.36,27.1-3.26,6.86-6.75,9.77-11.46,9.77A24.45,24.45,0,0,1,208.7,99.76Z"/><path class="cls-2" d="M26.43,44.57H21.18V44.3l.87-.16c.95-.19,1-.3,1-4.09a37.52,37.52,0,0,0-.13-4.7c-1.86.13-2.05.45-2.51,1.78l-.77,2.43h-.24c.2-1.56.36-3.18.44-4.51h8c.06,1.33.21,3,.38,4.51H28l-.74-2.42c-.43-1.33-.57-1.61-2.53-1.79a34,34,0,0,0-.12,4.13c0,4.45.05,4.49,1,4.68l.84.14Z"/><path class="cls-2" d="M40.21,39.7c-.76,0-1.54,0-2.34,0s-1.61,0-2.4,0c0,4.25.05,4.33.71,4.46l.81.14v.27H32.38V44.3l.82-.16c.68-.13.68-.28.68-4.06,0-4.44,0-4.52-.68-4.63l-.84-.13v-.27H37v.27l-.94.14c-.52.1-.57.29-.57,3.92.79,0,1.57,0,2.4,0s1.58,0,2.34,0c0-3.76-.06-3.82-.68-3.93l-.84-.13v-.27h4.62v.27l-.94.14c-.52.1-.57.29-.57,4,0,4.47,0,4.55.71,4.68l.81.14v.27H38.71V44.3l.82-.16c.68-.13.68-.28.68-4.06Z"/><path class="cls-2" d="M55.11,44.57H47.38V44.3l.87-.16c.59-.13.61-.27.61-4.12,0-4.41,0-4.46-.72-4.57l-.81-.13v-.27H55c0,1.05.14,2.36.28,3.62H55l-.49-1.51c-.54-1.38-1-1.68-4-1.82a31.38,31.38,0,0,0-.11,4.26c2,0,2.25-.27,2.46-1.15l.17-1h.18c0,1.13.14,3.57.27,4.66h-.18l-.28-1c-.31-1-.65-1.17-2.62-1.23a39.33,39.33,0,0,0,.11,4.41c3.05-.13,3.6-.38,4.09-1.78l.53-1.68h.23C55.27,42.11,55.16,43.47,55.11,44.57Z"/><line class="cls-3" x1="260.04" y1="107.55" x2="263.94" y2="109.34"/><line class="cls-3" x1="234.75" y1="96.89" x2="238.65" y2="98.69"/><line class="cls-3" x1="253.8" y1="92.49" x2="255.58" y2="88.59"/><line class="cls-3" x1="243.14" y1="117.78" x2="244.93" y2="113.88"/><path class="cls-4" d="M242.67,103.18H6.24V42A31.11,31.11,0,0,1,37.36,10.84h0A31.11,31.11,0,0,1,68.47,42v2.7"/></svg>