<svg xmlns="http://www.w3.org/2000/svg" viewBox="0 0 449.1 34.28"><defs><style>.cls-1{fill:none;stroke:#d5b482;stroke-linecap:round;stroke-linejoin:round;stroke-width:2px;}</style></defs><g id="Layer_3" data-name="Layer 3"><path class="cls-1" d="M442.79,9.6c-9.93,1.51-26.15,1.78-32.09,9.86-4.74,6.46-16,11.37-25.75,8.94-20.61-5.16-37.17-25.77-61.6-13.1-6.1,3.16-14.42,13.55-23.18,10.32-12.75-4.69-21-21-35.66-21.57-12.26-.5-19.38,7.27-28.32,12.48-14.92,8.7-16.45,4.39-30.51-5.39-22.8-15.87-31.34,2.06-53.28,6.94C133.8,22.21,120,1.81,105.65,22.24,93.54,39.51,73.54,1.14,57.71,16.53,52.15,22,14.26,13,7.79,9.6"/></g></svg>