<svg width="22" height="18" viewBox="0 0 22 18" fill="none" xmlns="http://www.w3.org/2000/svg">
<path d="M2.36027 1.46117L2.52005 1.71977L2.71978 1.91529L2.94264 2.08979L3.13817 2.28742L3.32108 2.49977L3.54814 2.66376L3.73105 2.88031L3.96442 3.03799L4.17466 3.223L4.37019 3.42483L4.60987 3.57411L4.82431 3.75702L5.08501 3.87055L5.30577 4.04505L5.55386 4.1775L5.78092 4.34149L6.03531 4.45923L6.26448 4.62953L6.51887 4.74936L6.77537 4.865L7.02135 4.99955L7.28415 5.09837L7.55747 5.16985L7.82658 5.25184L8.08308 5.36748L8.35639 5.43265L8.6234 5.51885L8.90302 5.5588L9.18054 5.60505L9.45386 5.67233L9.73348 5.68705L10.0131 5.72489L10.2927 5.75853L10.5745 5.72069L10.8499 5.7333L10.7973 5.45157L10.7826 5.16144L10.7721 4.8692L10.8246 4.58117L10.8562 4.29314L10.9171 4.00931L10.9361 3.71707L11.0601 3.45006L11.1673 3.18306L11.2598 2.90554L11.4154 2.65955L11.5983 2.43459L11.7728 2.21384L11.9621 2.0057L12.1513 1.79756L12.3846 1.63567L12.5844 1.43173L12.8156 1.26775L13.0742 1.14791L13.3349 1.03648L13.5809 0.899821L13.8458 0.794699L14.117 0.712705L14.3988 0.672759L14.6847 0.687476L14.9643 0.632812L15.2439 0.693783L15.5257 0.719012L15.8032 0.767368L16.0849 0.815724L16.3519 0.90823L16.6084 1.02807L16.8733 1.13529L17.1025 1.30559L17.338 1.46117L17.5966 1.58311L17.8131 1.76602L18.0423 1.93211L18.3177 1.93632L18.5847 1.84802L18.8538 1.78074L19.1187 1.70085L19.3752 1.59993L19.6443 1.52214L19.8861 1.38548L20.1531 1.29928L20.3949 1.15842L20.6367 0.996532L20.5378 1.26564L20.479 1.54106L20.3108 1.76812L20.2183 2.03513L20.0711 2.27271L19.863 2.46192L19.678 2.66796L19.5119 2.89713L19.2785 3.05271L19.0199 3.20829H19.3163L19.5854 3.14311L19.8546 3.09896L20.13 3.07583L20.3949 2.99384L20.6535 2.90554L20.91 2.80462L21.1265 2.67847L20.9836 2.89082L20.8301 3.12419L20.7018 3.37648L20.5189 3.59093L20.3528 3.82009L20.1279 3.99459L19.9597 4.22586L19.7284 4.38985L19.4971 4.54963L19.2869 4.73675L19.2974 5.01847L19.2785 5.3023L19.2533 5.58403L19.2491 5.86996L19.2238 6.15168L19.1944 6.43341L19.1418 6.71303L19.064 6.98635L19.0262 7.26807L18.9568 7.54139L18.9442 7.82942L18.8517 8.10063L18.7613 8.36974L18.6898 8.64516L18.6394 8.92689L18.5006 9.17918L18.4228 9.45249L18.3072 9.71319L18.1915 9.97179L18.1243 10.2535L17.9813 10.4995L17.8867 10.7707L17.7227 11.0062L17.5881 11.2564L17.4788 11.5213L17.3127 11.7546L17.1635 11.9964L17.01 12.2361L16.8334 12.459L16.6841 12.7028L16.518 12.9362L16.2994 13.1254L16.1312 13.3546L15.9419 13.5669L15.7674 13.794L15.5383 13.9685L15.3575 14.1893L15.1388 14.3743L14.9349 14.574L14.6952 14.7338L14.4955 14.9398L14.2747 15.1227L14.0477 15.2993L13.8038 15.4507L13.562 15.6042L13.295 15.7156L13.0595 15.8817L12.7967 15.9931L12.5486 16.1361L12.2942 16.2728L12.0251 16.3737L11.7455 16.4389L11.4932 16.5839L11.2073 16.6302L10.9382 16.7269L10.6649 16.8215L10.3894 16.8993L10.0993 16.9098L9.82809 17.0149L9.54216 17.0423L9.25623 17.0549L8.97871 17.139L8.69068 17.1453L8.40685 17.181L8.11882 17.1663L7.83499 17.1852L7.54906 17.2252L7.26313 17.202L6.9772 17.1831L6.69127 17.1684L6.40534 17.1621L6.11941 17.1474L5.83348 17.1264L5.55175 17.057L5.27003 17.0128L4.9883 16.975L4.70237 16.9497L4.42906 16.8678L4.14523 16.8173L3.89294 16.6827L3.61332 16.6197L3.35051 16.5145L3.10032 16.3737L2.8207 16.3169L2.5621 16.195L2.3035 16.0793L2.0365 15.9784L1.76949 15.8838L1.5193 15.7472L1.2628 15.6231L1 15.4823L1.29854 15.5201L1.58658 15.4907L1.87461 15.5033L2.16054 15.4549L2.44647 15.4297L2.7345 15.4276L3.01202 15.3477L3.30426 15.3456L3.58178 15.2636L3.8572 15.1795L4.13262 15.0975L4.40803 15.0113L4.67925 14.9167L4.96097 14.8452L5.21326 14.698L5.48868 14.6055L5.74518 14.4731L5.98275 14.307L6.24555 14.183L6.47682 14.0106L6.72491 13.8613L6.94566 13.6826L6.67445 13.6468L6.40113 13.5817L6.13413 13.4934L5.87553 13.3861L5.62113 13.2705L5.37094 13.1465L5.11865 13.0245L4.89369 12.8563L4.65191 12.7113L4.42275 12.5473L4.25035 12.3202L4.05483 12.1205L3.88453 11.8997L3.69952 11.6895L3.56917 11.4414L3.41989 11.2017L3.34421 10.9305L3.22016 10.6719L3.50609 10.7139L3.78572 10.7791L4.07165 10.7833L4.35758 10.7497L4.6372 10.6866L4.90841 10.5983L4.91892 10.5794L4.64771 10.5142L4.39121 10.3986L4.14103 10.2661L3.88663 10.1484L3.65116 9.99282L3.4241 9.82672L3.18022 9.68166L2.98049 9.48193L2.78496 9.28009L2.61887 9.05093L2.41073 8.8533L2.26146 8.60942L2.1269 8.35923L2.04701 8.08591L1.94399 7.82311L1.88933 7.54559L1.81574 7.27228L1.78 6.99265L1.75057 6.71093L1.73375 6.42079L1.96501 6.56586L2.22151 6.64365L2.46539 6.74877L2.70927 6.8581L2.97208 6.90015L3.23488 6.94219L3.52712 6.98214L3.27062 6.81815L3.0751 6.61842L2.89008 6.41238L2.68194 6.22316L2.53267 5.98769L2.3897 5.74802L2.20469 5.53777L2.10588 5.27497L1.98814 5.02478L1.91456 4.75777L1.84728 4.48866L1.78 4.21955L1.76949 3.94203L1.81154 3.6582L1.78631 3.37227L1.82415 3.09055L1.90194 2.81513L1.95871 2.53761L1.98604 2.25168L2.10798 1.99308L2.21941 1.73238L2.36027 1.46117Z" stroke="#5F3117" stroke-linejoin="bevel"/>
</svg>
