<svg width="51" height="50" viewBox="0 0 51 50" fill="none" xmlns="http://www.w3.org/2000/svg">
<path d="M29.1346 25.0007C28.0352 26.3165 25.0451 28.1586 21.879 25.0007C18.7129 21.8428 20.5598 18.4217 21.879 17.1059L27.1558 11.8428C28.475 10.7463 31.773 9.34277 34.4114 12.5007C37.0497 15.6586 35.9504 18.2026 35.071 19.0798L31.773 22.3693" stroke="#AAA378" stroke-width="2"/>
<path d="M23.1981 23.685C24.5173 22.3693 27.9471 20.5271 31.1132 23.685C34.8072 26.8429 32.6524 30.7026 31.1132 32.2377L25.8361 37.5009C21.8785 41.4482 19.4602 38.1588 17.9213 36.843C13.1722 32.6325 17.2617 28.5096 19.9001 26.9746" stroke="#AAA378" stroke-width="2"/>
<path d="M49.9007 25C49.9007 38.2524 39.1291 49 25.8361 49C12.5431 49 1.77148 38.2524 1.77148 25C1.77148 11.7476 12.5431 1 25.8361 1C39.1291 1 49.9007 11.7476 49.9007 25Z" stroke="#AAA378" stroke-width="2"/>
</svg>
