<svg xmlns="http://www.w3.org/2000/svg" viewBox="0 0 110.91 109.98"><defs><style>.cls-1{fill:none;stroke:#fff;stroke-miterlimit:10;stroke-width:2px;}</style></defs><g id="Layer_2" data-name="Layer 2"><path class="cls-1" d="M55.14,23.85s0,32.94-23.29,9.65c0,0,23.29,23.3-9.65,23.3,0,0,32.94,0,9.65,23.29,0,0,23.29-23.29,23.29,9.65,0,0,0-32.94,23.3-9.65,0,0-23.3-23.29,9.65-23.29,0,0-32.95,0-9.65-23.3C78.44,33.5,55.14,56.8,55.14,23.85Z"/><line class="cls-1" x1="55.14" y1="23.85" x2="55.14" y2="8.13"/><polyline class="cls-1" points="55.14 89.74 55.14 89.74 55.14 105.47"/><line class="cls-1" x1="88.09" y1="56.8" x2="103.81" y2="56.8"/><line class="cls-1" x1="78.44" y1="33.5" x2="89.56" y2="22.38"/><line class="cls-1" x1="78.44" y1="80.09" x2="89.56" y2="91.21"/><line class="cls-1" x1="31.85" y1="80.09" x2="20.73" y2="91.21"/><line class="cls-1" x1="22.2" y1="56.8" x2="6.47" y2="56.8"/><line class="cls-1" x1="31.85" y1="33.5" x2="20.73" y2="22.38"/></g></svg>