<svg xmlns="http://www.w3.org/2000/svg" viewBox="0 0 54.44 54.44"><defs><style>.cls-1{fill:none;stroke:#aaa378;stroke-width:2px;}</style></defs><g id="Layer_3" data-name="Layer 3"><path class="cls-1" d="M30.48,27.81c-1.1,1.31-4.09,3.15-7.25,0a5.38,5.38,0,0,1,0-7.9l5.28-5.26a5,5,0,0,1,7.25.66c2.64,3.15,1.54,5.7.66,6.58l-2.06,2.05"/><path class="cls-1" d="M25,26.22a5.4,5.4,0,0,1,7.91,0c3.7,3.15,1.54,7,0,8.55L27.63,40c-4,3.95-6.38.66-7.92-.66-4.75-4.21-.66-8.33,2-9.87"/><path class="cls-1" d="M51.69,27.53a24.07,24.07,0,1,1-24.06-24A24,24,0,0,1,51.69,27.53Z"/></g></svg>